<svg width="273" height="247" viewBox="0 0 273 247" fill="none" xmlns="http://www.w3.org/2000/svg">
<path d="M136.174 190.574H269.097V63.2009L136.174 190.574ZM244.655 167.29H196.264L244.738 120.925L244.655 167.29Z" fill="#DBDBDB"/>
<path d="M265.026 67.139L264.434 67.7051L136.174 190.574H269.097V63.2009L265.026 67.139ZM244.655 167.296H196.264L244.745 120.925L244.655 167.296Z" fill="#EBEBEB"/>
<path d="M269.117 68.5912H264.55V69.2003H269.117V68.5912Z" fill="#C7C7C7"/>
<path d="M269.117 71.4217H266.421V72.0309H269.117V71.4217Z" fill="#C7C7C7"/>
<path d="M269.117 74.246H266.421V74.8552H269.117V74.246Z" fill="#C7C7C7"/>
<path d="M269.117 77.0766H266.421V77.6858H269.117V77.0766Z" fill="#C7C7C7"/>
<path d="M269.117 79.9071H266.421V80.5163H269.117V79.9071Z" fill="#C7C7C7"/>
<path d="M269.117 82.7315H266.421V83.3468H269.117V82.7315Z" fill="#C7C7C7"/>
<path d="M269.117 85.562H266.421V86.1712H269.117V85.562Z" fill="#C7C7C7"/>
<path d="M269.117 88.3925H264.55V89.0017H269.117V88.3925Z" fill="#C7C7C7"/>
<path d="M269.117 91.2292H266.421V91.8384H269.117V91.2292Z" fill="#C7C7C7"/>
<path d="M269.117 94.0474H266.421V94.6566H269.117V94.0474Z" fill="#C7C7C7"/>
<path d="M269.117 96.8841H266.421V97.4933H269.117V96.8841Z" fill="#C7C7C7"/>
<path d="M269.117 99.7146H266.421V100.324H269.117V99.7146Z" fill="#C7C7C7"/>
<path d="M269.117 102.539H266.421V103.148H269.117V102.539Z" fill="#C7C7C7"/>
<path d="M269.117 105.369H266.421V105.979H269.117V105.369Z" fill="#C7C7C7"/>
<path d="M269.117 108.2H264.55V108.809H269.117V108.2Z" fill="#C7C7C7"/>
<path d="M269.117 111.024H266.421V111.634H269.117V111.024Z" fill="#C7C7C7"/>
<path d="M269.117 113.855H266.421V114.464H269.117V113.855Z" fill="#C7C7C7"/>
<path d="M269.117 116.685H266.421V117.295H269.117V116.685Z" fill="#C7C7C7"/>
<path d="M269.117 119.51H266.421V120.125H269.117V119.51Z" fill="#C7C7C7"/>
<path d="M269.117 122.34H266.421V122.949H269.117V122.34Z" fill="#C7C7C7"/>
<path d="M269.117 125.177H266.421V125.786H269.117V125.177Z" fill="#C7C7C7"/>
<path d="M269.117 128.008H264.55V128.617H269.117V128.008Z" fill="#C7C7C7"/>
<path d="M269.117 130.826H266.421V131.435H269.117V130.826Z" fill="#C7C7C7"/>
<path d="M269.117 133.662H266.421V134.272H269.117V133.662Z" fill="#C7C7C7"/>
<path d="M269.117 136.493H266.421V137.102H269.117V136.493Z" fill="#C7C7C7"/>
<path d="M269.117 139.317H266.421V139.926H269.117V139.317Z" fill="#C7C7C7"/>
<path d="M269.117 142.148H266.421V142.757H269.117V142.148Z" fill="#C7C7C7"/>
<path d="M269.117 144.978H266.421V145.587H269.117V144.978Z" fill="#C7C7C7"/>
<path d="M269.117 147.803H264.55V148.418H269.117V147.803Z" fill="#C7C7C7"/>
<path d="M269.117 150.633H266.421V151.242H269.117V150.633Z" fill="#C7C7C7"/>
<path d="M269.117 153.464H266.421V154.073H269.117V153.464Z" fill="#C7C7C7"/>
<path d="M269.117 156.3H266.421V156.91H269.117V156.3Z" fill="#C7C7C7"/>
<path d="M269.117 159.119H266.421V159.728H269.117V159.119Z" fill="#C7C7C7"/>
<path d="M269.117 161.955H266.421V162.564H269.117V161.955Z" fill="#C7C7C7"/>
<path d="M269.117 164.786H266.421V165.395H269.117V164.786Z" fill="#C7C7C7"/>
<path d="M269.117 167.61H264.55V168.219H269.117V167.61Z" fill="#C7C7C7"/>
<path d="M269.117 170.441H266.421V171.05H269.117V170.441Z" fill="#C7C7C7"/>
<path d="M269.117 173.271H266.421V173.88H269.117V173.271Z" fill="#C7C7C7"/>
<path d="M269.117 176.096H266.421V176.705H269.117V176.096Z" fill="#C7C7C7"/>
<path d="M269.117 178.926H266.421V179.535H269.117V178.926Z" fill="#C7C7C7"/>
<path d="M269.117 181.757H266.421V182.366H269.117V181.757Z" fill="#C7C7C7"/>
<path d="M269.117 184.581H266.421V185.196H269.117V184.581Z" fill="#C7C7C7"/>
<path d="M254.824 91.0015L258.368 85.5435L256.619 84.5098C256.369 84.3586 256.167 84.144 256.036 83.8899C255.906 83.6357 255.851 83.3519 255.879 83.0699C255.898 82.7502 255.898 82.4297 255.879 82.11C255.87 81.8277 255.944 81.5486 256.092 81.3041C256.239 81.0595 256.455 80.8592 256.715 80.7255L258.529 79.7964L255.377 74.1599L253.564 75.0891C253.303 75.2212 253.009 75.2815 252.715 75.263C252.421 75.2445 252.138 75.1481 251.898 74.9845C251.622 74.8012 251.337 74.6327 251.042 74.4799C250.782 74.346 250.565 74.1458 250.417 73.9014C250.268 73.657 250.193 73.3781 250.199 73.0954L250.264 71.1264L243.555 70.9294L243.491 72.9047C243.478 73.1869 243.385 73.4604 243.22 73.695C243.055 73.9296 242.826 74.116 242.558 74.2338C242.403 74.2953 242.262 74.3691 242.114 74.443C241.966 74.5168 241.825 74.5968 241.683 74.6768C241.433 74.8243 241.144 74.9024 240.85 74.9024C240.556 74.9024 240.268 74.8243 240.017 74.6768L238.255 73.6369L234.717 79.0949L236.466 80.1348C236.717 80.2859 236.919 80.5005 237.049 80.7547C237.18 81.0089 237.234 81.2927 237.206 81.5747C237.176 81.8917 237.165 82.2102 237.174 82.5284C237.183 82.8107 237.109 83.0898 236.962 83.3344C236.814 83.5789 236.598 83.7793 236.338 83.9129L234.524 84.8421L237.701 90.5093L239.509 89.5432C239.769 89.411 240.063 89.3508 240.357 89.3693C240.652 89.3878 240.935 89.4842 241.175 89.6478C241.449 89.8283 241.732 89.9944 242.024 90.1462C242.285 90.279 242.503 90.479 242.651 90.7236C242.8 90.9682 242.875 91.2478 242.867 91.5307L242.809 93.5059L249.518 93.7028L249.582 91.7338C249.595 91.4517 249.689 91.1784 249.853 90.944C250.018 90.7096 250.247 90.523 250.515 90.4046L250.965 90.1954C251.106 90.1154 251.254 90.0416 251.396 89.9555C251.647 89.8074 251.937 89.729 252.232 89.729C252.527 89.729 252.817 89.8074 253.068 89.9555L254.824 91.0015ZM249.157 86.9465C248.199 87.4374 247.109 87.6453 246.027 87.544C244.945 87.4427 243.918 87.0367 243.077 86.3774C242.236 85.718 241.618 84.8349 241.301 83.8396C240.984 82.8444 240.983 81.7817 241.298 80.7858C241.613 79.79 242.229 78.9057 243.069 78.2448C243.908 77.584 244.934 77.1761 246.016 77.0729C247.099 76.9696 248.188 77.1755 249.148 77.6647C250.108 78.1538 250.895 78.9042 251.409 79.821C251.751 80.43 251.965 81.0977 252.037 81.7858C252.109 82.4739 252.038 83.1688 251.829 83.8308C251.62 84.4928 251.276 85.1088 250.818 85.6434C250.359 86.1781 249.795 86.6209 249.157 86.9465Z" fill="#DBDBDB"/>
<path d="M77.9358 39.8307L75.5815 35.9295L74.3337 36.6248C74.1542 36.7234 73.9496 36.7721 73.7428 36.7656C73.536 36.7591 73.3352 36.6975 73.163 36.5879C72.9675 36.4639 72.7633 36.3529 72.5519 36.2556C72.3625 36.1697 72.2019 36.0349 72.0883 35.8664C71.9746 35.6978 71.9124 35.5023 71.9087 35.3018V33.9173H67.2002V35.2957C67.198 35.4965 67.1364 35.6926 67.0226 35.8614C66.9088 36.0302 66.7474 36.1647 66.557 36.2494C66.3464 36.3481 66.1424 36.4591 65.946 36.5817C65.7737 36.6914 65.5729 36.7529 65.3661 36.7594C65.1593 36.766 64.9547 36.7172 64.7753 36.6186L63.5274 35.9295L61.1732 39.8307L62.4275 40.5198C62.6064 40.621 62.7523 40.7679 62.8489 40.944C62.9454 41.12 62.9888 41.3183 62.9742 41.5167C62.9742 41.6274 62.9742 41.732 62.9742 41.8489C62.9742 41.9658 62.9742 42.0705 62.9742 42.1751C62.9897 42.372 62.9474 42.5691 62.8519 42.7442C62.7564 42.9192 62.6116 43.0653 62.4339 43.1657L61.1475 43.8611L63.5017 47.7623L64.756 47.0669C64.9364 46.9706 65.1411 46.9237 65.3476 46.9313C65.5541 46.9389 65.7545 47.0007 65.9267 47.11C66.1209 47.2326 66.3228 47.3436 66.5313 47.4423C66.7216 47.527 66.8831 47.6615 66.9969 47.8303C67.1107 47.9991 67.1723 48.1952 67.1745 48.3961V49.7744H71.883V48.3961C71.8867 48.1956 71.9489 48 72.0626 47.8315C72.1762 47.663 72.3368 47.5282 72.5262 47.4423C72.7355 47.3449 72.9375 47.2339 73.1308 47.11C73.3043 47.0008 73.5056 46.9391 73.7131 46.9315C73.9206 46.9239 74.1263 46.9708 74.3079 47.0669L75.5558 47.7623L77.91 43.8611L76.6557 43.1719C76.4783 43.0673 76.335 42.9175 76.2418 42.7392C76.1486 42.5609 76.1093 42.3613 76.1283 42.1628C76.1283 42.052 76.1283 41.9412 76.1283 41.8305C76.1283 41.7197 76.1283 41.609 76.1283 41.4982C76.1137 41.2999 76.1571 41.1016 76.2537 40.9255C76.3502 40.7494 76.4961 40.6026 76.675 40.5014L77.9358 39.8307ZM73.4331 41.8489C73.4331 42.5791 73.2068 43.293 72.7827 43.9001C72.3586 44.5072 71.7559 44.9804 71.0507 45.2599C70.3455 45.5393 69.5695 45.6124 68.8208 45.47C68.0722 45.3275 67.3845 44.9759 66.8448 44.4596C66.305 43.9432 65.9375 43.2854 65.7885 42.5692C65.6396 41.853 65.7161 41.1107 66.0082 40.4361C66.3003 39.7615 66.7949 39.1848 67.4296 38.7792C68.0643 38.3735 68.8105 38.157 69.5738 38.157C70.5973 38.157 71.579 38.5459 72.3028 39.2383C73.0265 39.9307 73.4331 40.8698 73.4331 41.8489Z" fill="#DBDBDB"/>
<path d="M40.8024 119.442C37.1761 119.441 33.6309 120.469 30.6152 122.395C27.5995 124.322 25.2489 127.06 23.8606 130.265C22.4722 133.47 22.1087 136.996 22.8158 140.399C23.5229 143.801 25.269 146.927 27.8332 149.379C30.3974 151.832 33.6644 153.503 37.2211 154.179C40.7778 154.856 44.4643 154.508 47.8143 153.18C51.1643 151.852 54.0273 149.603 56.0412 146.718C58.055 143.833 59.1293 140.442 59.128 136.973C59.128 132.323 57.1973 127.864 53.7605 124.577C50.3238 121.289 45.6626 119.442 40.8024 119.442ZM40.8024 145.163C39.1091 145.163 37.4538 144.683 36.0459 143.783C34.638 142.883 33.5407 141.604 32.8927 140.107C32.2447 138.611 32.0751 136.964 32.4055 135.375C32.7358 133.786 33.5512 132.327 34.7485 131.182C35.9459 130.036 37.4714 129.256 39.1321 128.94C40.7929 128.624 42.5143 128.786 44.0787 129.406C45.6431 130.026 46.9802 131.076 47.9209 132.423C48.8616 133.77 49.3638 135.353 49.3638 136.973C49.3646 138.049 49.1437 139.114 48.7138 140.108C48.2838 141.102 47.6532 142.005 46.8581 142.766C46.0629 143.527 45.1188 144.13 44.0797 144.541C43.0406 144.952 41.9269 145.164 40.8024 145.163Z" fill="#EBEBEB"/>
<path d="M44.3271 120.168H37.2773L37.6697 115.399H43.9348L44.3271 120.168Z" fill="#EBEBEB"/>
<path d="M30.9091 122.445L25.9241 127.208L22.6758 123.571L27.1076 119.331L30.9091 122.445Z" fill="#EBEBEB"/>
<path d="M23.1072 133.121V139.865L18.1157 139.49V133.496L23.1072 133.121Z" fill="#EBEBEB"/>
<path d="M25.4808 145.957L30.4659 150.725L26.6579 153.833L22.2261 149.593L25.4808 145.957Z" fill="#EBEBEB"/>
<path d="M36.6406 153.421H43.6904L43.3045 158.196H37.033L36.6406 153.421Z" fill="#EBEBEB"/>
<path d="M50.0586 151.15L55.0436 146.387L58.2919 150.024L53.8601 154.264L50.0586 151.15Z" fill="#EBEBEB"/>
<path d="M57.8672 140.468V133.73L62.8522 134.099V140.099L57.8672 140.468Z" fill="#EBEBEB"/>
<path d="M55.4938 127.638L50.5088 122.869L54.3103 119.762L58.7421 124.002L55.4938 127.638Z" fill="#EBEBEB"/>
<path d="M215.266 6.03668C211.641 6.03668 208.098 7.06484 205.084 8.99115C202.071 10.9175 199.722 13.6554 198.335 16.8587C196.948 20.062 196.585 23.5869 197.292 26.9875C197.999 30.3882 199.745 33.5118 202.307 35.9636C204.87 38.4153 208.136 40.0849 211.69 40.7614C215.245 41.4378 218.93 41.0906 222.278 39.7638C225.627 38.4369 228.489 36.1899 230.503 33.307C232.516 30.4241 233.591 27.0347 233.591 23.5674C233.592 21.265 233.119 18.9851 232.198 16.8578C231.277 14.7305 229.927 12.7976 228.226 11.1695C226.524 9.54148 224.503 8.2502 222.279 7.36948C220.056 6.48877 217.672 6.03587 215.266 6.03668ZM215.266 31.7513C213.572 31.7513 211.917 31.2708 210.508 30.3706C209.1 29.4704 208.003 28.191 207.355 26.6941C206.707 25.1972 206.538 23.5501 206.869 21.9612C207.2 20.3723 208.016 18.913 209.214 17.7679C210.412 16.6227 211.938 15.8432 213.599 15.5279C215.26 15.2125 216.982 15.3756 218.546 15.9964C220.111 16.6173 221.447 17.668 222.387 19.0156C223.327 20.3633 223.828 21.9473 223.827 23.5674C223.827 24.6427 223.605 25.7074 223.175 26.7007C222.745 27.694 222.114 28.5965 221.319 29.3565C220.524 30.1165 219.58 30.7192 218.541 31.1301C217.503 31.5411 216.39 31.7521 215.266 31.7513Z" fill="#EBEBEB"/>
<path d="M218.791 6.76279H211.741L212.133 1.98782H218.398L218.791 6.76279Z" fill="#EBEBEB"/>
<path d="M205.373 9.03334L200.394 13.8022L197.14 10.1594L201.571 5.91977L205.373 9.03334Z" fill="#EBEBEB"/>
<path d="M197.57 19.7155V26.4534L192.579 26.0842V20.0847L197.57 19.7155Z" fill="#EBEBEB"/>
<path d="M199.944 32.5451L204.929 37.3139L201.121 40.4214L196.689 36.1817L199.944 32.5451Z" fill="#EBEBEB"/>
<path d="M211.11 40.0152H218.153L217.767 44.784H211.496L211.11 40.0152Z" fill="#EBEBEB"/>
<path d="M224.522 37.7385L229.507 32.9759L232.755 36.6125L228.323 40.8521L224.522 37.7385Z" fill="#EBEBEB"/>
<path d="M232.33 27.0625V20.3185L237.315 20.6939V26.6872L232.33 27.0625Z" fill="#EBEBEB"/>
<path d="M229.95 14.2267L224.972 9.46406L228.773 6.35049L233.205 10.5901L229.95 14.2267Z" fill="#EBEBEB"/>
<path d="M136.592 247C206.213 247 262.652 241.179 262.652 233.998C262.652 226.817 206.213 220.996 136.592 220.996C66.9708 220.996 10.5317 226.817 10.5317 233.998C10.5317 241.179 66.9708 247 136.592 247Z" fill="#EBEBEB"/>
<path d="M0.465332 190.544L34.4986 190.396L68.5255 190.341L136.592 190.236L204.659 190.341L238.692 190.396L272.719 190.544L238.692 190.697L204.659 190.753L136.592 190.851L68.5255 190.747L34.4986 190.691L0.465332 190.544Z" fill="#263238"/>
<path d="M161.105 173.167L161.144 181.049L161.105 181.012H169.049H169.12V181.08L169.165 190.759V190.87H169.043L161.099 190.907L161.253 190.759V198.647L161.086 198.481H165.293V198.654V208.327V208.511H159.272L159.452 208.4C157.494 212.401 154.129 215.618 149.945 217.489C147.868 218.415 145.64 218.994 143.359 219.199C142.22 219.304 141.075 219.298 139.95 219.298H133.202C132.063 219.322 130.923 219.291 129.787 219.206C127.502 219.005 125.27 218.433 123.187 217.513C121.109 216.576 119.211 215.312 117.572 213.772C115.946 212.218 114.611 210.41 113.622 208.425L113.88 208.579H108.052H107.756V208.302V198.629V198.334H112.098L111.783 198.635V190.728L112.098 191.03H104.154H103.852V190.74V181.061V180.784H104.141H112.085L111.815 181.049V173.167L112.072 173.419H104.128H103.877V173.179V163.5V163.272H104.115L136.573 163.321L169.03 163.42H169.114V163.5L169.069 173.179V173.228H169.03L161.105 173.167ZM161.105 173.167L169.049 173.13V173.167L169.004 163.487L169.082 163.561L136.624 163.66L104.167 163.709L104.398 163.487V173.167L104.154 172.927H112.098H112.361V173.179V181.061V181.32H112.085H104.141L104.424 181.049V190.728L104.122 190.439H112.066H112.381V198.93H108.039L108.348 198.635V208.308L108.058 208.025H113.886H114.079L114.156 208.179C115.114 210.11 116.406 211.872 117.977 213.391C119.572 214.888 121.415 216.123 123.431 217.046C125.461 217.946 127.636 218.51 129.864 218.713C130.97 218.818 132.089 218.812 133.228 218.812H140.008C141.146 218.812 142.265 218.812 143.378 218.726C145.605 218.528 147.78 217.968 149.81 217.07C153.898 215.249 157.187 212.113 159.105 208.21L159.156 208.099H165.113L164.92 208.284V198.611L165.093 198.777H160.893V198.617V190.728V190.58H161.048L168.991 190.617L168.876 190.728L168.921 181.049L168.991 181.117L161.048 181.086H161.009V181.055L161.105 173.167Z" fill="#263238"/>
<path d="M187.754 146.835C216.012 119.803 216.012 75.9764 187.754 48.9449C159.497 21.9134 113.683 21.9134 85.4263 48.9449C57.1691 75.9764 57.1691 119.803 85.4263 146.835C113.683 173.866 159.497 173.866 187.754 146.835Z" fill="white"/>
<path d="M136.592 167.413C122.217 167.413 108.164 163.335 96.2106 155.695C84.2576 148.055 74.9414 137.195 69.4401 124.49C63.9387 111.784 62.4993 97.8038 65.3039 84.3159C68.1084 70.8279 75.031 58.4384 85.1962 48.7142C95.3614 38.9899 108.313 32.3676 122.412 29.6846C136.512 27.0017 151.126 28.3787 164.408 33.6414C177.689 38.9042 189.041 47.8163 197.028 59.2508C205.014 70.6854 209.277 84.1287 209.277 97.8809C209.257 116.316 201.592 133.991 187.966 147.026C174.339 160.062 155.863 167.394 136.592 167.413ZM136.592 28.9639C122.344 28.9639 108.415 33.0058 96.568 40.5785C84.7208 48.1512 75.487 58.9146 70.0343 71.5075C64.5817 84.1005 63.155 97.9574 65.9348 111.326C68.7145 124.695 75.5758 136.974 85.651 146.613C95.7263 156.251 108.563 162.815 122.538 165.474C136.512 168.133 150.998 166.768 164.161 161.552C177.325 156.336 188.577 147.503 196.493 136.169C204.409 124.836 208.634 111.511 208.634 97.8809C208.608 79.6111 201.01 62.0966 187.505 49.1784C174 36.2602 155.69 28.9929 136.592 28.9701V28.9639Z" fill="#263238"/>
<path d="M208.949 97.8871C208.955 110.106 205.578 122.108 199.162 132.673C192.745 143.238 183.519 151.989 172.42 158.036C167.062 156.387 163.074 152.528 159.079 148.67C156.204 145.889 163.215 144.751 158.963 143.28C163.099 139.36 168.56 131.441 161.536 132.579C157.285 131.103 154.641 139.108 148.955 136.271C143.269 133.435 141.738 126.598 136.019 123.737L130.501 128.961C126.242 127.478 123.245 119.313 121.868 120.617C114.857 121.75 110.779 128.364 105.267 133.582C102.385 130.807 98.1332 129.337 99.4776 125.331C125.438 97.6041 150.936 68.542 177.81 40.9691C187.427 47.338 195.285 55.8447 200.709 65.7586C206.133 75.6725 208.96 86.6976 208.949 97.8871Z" fill="url(#paint0_linear_33_692)"/>
<path d="M144.085 171.382H142.799V127.454C141.062 127.454 138.142 127.484 136.836 127.484H136.347C135.061 127.484 132.128 127.484 130.385 127.454V171.382H129.098V126.205H129.741C131.156 126.205 134.54 126.242 136.334 126.242H136.823C138.618 126.242 142.001 126.242 143.416 126.205H144.06L144.085 171.382Z" fill="#263238"/>
<path d="M142.8 127.46V113.049C142.8 107.726 145.874 103.899 150.634 103.296C155.137 102.73 160.926 105.493 162.991 112.889C164.329 117.639 164.136 120.888 162.399 123.085C159.678 126.531 153.394 127.294 143.449 127.448L142.8 127.46ZM151.805 104.459C151.474 104.457 151.143 104.478 150.814 104.52C146.736 105.031 144.099 108.378 144.099 113.049V126.205C153.04 126.038 159.048 125.3 161.383 122.346C162.862 120.464 162.984 117.565 161.762 113.209C160.032 107.074 155.574 104.459 151.792 104.459H151.805Z" fill="#263238"/>
<path d="M130.384 127.46H129.741C119.803 127.306 113.519 126.543 110.805 123.097C109.061 120.894 108.875 117.652 110.2 112.901C112.278 105.517 118.067 102.742 122.569 103.308C127.323 103.923 130.397 107.739 130.397 113.061L130.384 127.46ZM121.379 104.459C117.597 104.459 113.139 107.074 111.416 113.209C110.2 117.565 110.322 120.464 111.802 122.346C114.136 125.3 120.164 126.038 129.085 126.205V113.049C129.085 108.378 126.448 105.05 122.37 104.52C122.046 104.479 121.719 104.458 121.392 104.459H121.379Z" fill="#263238"/>
<path d="M145.707 153.205H127.478C124.131 153.205 121.418 155.8 121.418 159.002V162.601C121.418 165.803 124.131 168.398 127.478 168.398H145.707C149.053 168.398 151.766 165.803 151.766 162.601V159.002C151.766 155.8 149.053 153.205 145.707 153.205Z" fill="#A6A6A6"/>
<path d="M84.651 48.8145C91.4464 42.31 99.5224 37.1588 108.412 33.6589C117.305 30.16 126.816 28.322 136.431 28.244C146.054 28.1588 155.602 29.862 164.547 33.2589C173.497 36.6639 181.632 41.7694 188.462 48.2668C195.269 54.7856 200.641 62.544 204.26 71.0833C211.534 88.3426 211.621 107.612 204.504 124.931C200.981 133.527 195.661 141.345 188.869 147.905C182.076 154.465 173.955 159.629 165.003 163.081C156.066 166.551 146.508 168.325 136.862 168.305C127.225 168.29 117.681 166.506 108.746 163.051C99.812 159.6 91.6878 154.478 84.8506 147.984C78.0133 141.49 72.6008 133.754 68.9305 125.232C61.5603 108.043 61.528 88.775 68.8404 71.5632C72.472 63.0475 77.8477 55.3128 84.651 48.8145ZM84.651 48.8145C77.8712 55.3246 72.5198 63.0653 68.9112 71.5817C61.6723 88.7704 61.76 107.988 69.1556 125.115C72.8374 133.586 78.2484 141.268 85.0718 147.713C91.8953 154.158 99.9942 159.236 108.894 162.651C117.787 166.061 127.281 167.809 136.862 167.801C146.437 167.808 155.923 166.036 164.791 162.583C173.647 159.114 181.682 153.972 188.415 147.466C195.147 140.96 200.44 133.222 203.977 124.715C211.107 107.517 211.075 88.3581 203.887 71.1817C200.33 62.6602 195.001 54.9185 188.223 48.4262C181.446 41.9338 173.36 36.8261 164.457 33.4128C155.548 30.0026 146.032 28.2806 136.437 28.3424C126.836 28.3915 117.334 30.2004 108.444 33.6712C99.5447 37.1647 91.4577 42.3118 84.651 48.8145Z" fill="#263238"/>
<path d="M209.592 98.5024C209.57 89.311 207.642 80.2152 203.919 71.7417C200.196 63.272 194.809 55.5641 188.051 49.036C181.311 42.4982 173.309 37.2738 164.489 33.6527C155.67 30.0536 146.18 28.1991 136.592 28.2009C127.005 28.2344 117.521 30.1049 108.702 33.702C90.9377 40.9892 76.7642 54.5061 69.0917 71.4771C65.3031 79.8841 63.3254 88.9355 63.2767 98.0903C63.2281 107.245 65.1096 116.315 68.8087 124.759C72.5258 133.199 77.9217 140.869 84.6965 147.341C91.4686 153.828 99.4776 159.012 108.29 162.614C117.106 166.226 126.587 168.117 136.176 168.176C145.766 168.236 155.272 166.461 164.135 162.958C182.038 155.847 196.311 142.301 203.887 125.232C207.631 116.775 209.57 107.687 209.592 98.5024ZM209.592 98.5024C209.601 107.699 207.685 116.804 203.958 125.282C196.409 142.392 182.156 155.994 164.251 163.174C155.357 166.714 145.814 168.519 136.182 168.484C126.549 168.449 117.02 166.575 108.155 162.971C99.2699 159.376 91.1901 154.18 84.3556 147.667C77.5084 141.169 72.0469 133.46 68.2748 124.968C64.4952 116.469 62.5713 107.322 62.6211 98.0862C62.6708 88.8507 64.6933 79.7224 68.5643 71.2617C76.3317 54.2015 90.635 40.6354 108.535 33.3512C117.398 29.736 126.936 27.8812 136.571 27.8991C146.206 27.9171 155.737 29.8076 164.586 33.4558C173.424 37.1027 181.438 42.3587 188.179 48.9314C194.923 55.4845 200.292 63.2128 203.996 71.6986C207.694 80.192 209.596 89.3019 209.592 98.5024Z" fill="#263238"/>
<path d="M135.949 169.333C145.693 169.309 155.336 167.439 164.322 163.832C173.299 160.223 181.47 155.001 188.391 148.449C195.322 141.91 200.858 134.144 204.691 125.583C208.514 117.025 210.483 107.815 210.48 98.5086C210.448 89.2013 208.464 79.9947 204.646 71.434C196.924 54.1959 182.593 40.4423 164.598 33.0005C155.684 29.3245 146.087 27.4053 136.38 27.3578C126.674 27.3102 117.056 29.1351 108.103 32.7236C99.156 36.3345 91.0255 41.5713 84.1625 48.1438C77.2856 54.7125 71.7877 62.4805 67.9659 71.0279C64.1388 79.5812 62.1355 88.7794 62.0737 98.0831C62.0118 107.387 63.8926 116.609 67.6057 125.208C75.1421 142.574 89.4942 156.423 107.582 163.783C116.556 167.425 126.201 169.312 135.949 169.333ZM135.949 169.333C126.199 169.338 116.546 167.48 107.557 163.869C89.4135 156.536 74.9955 142.694 67.3935 125.312C63.6368 116.684 61.7204 107.425 61.7569 98.0789C61.7933 88.7325 63.7819 79.4873 67.6057 70.8864C71.4286 62.2781 76.942 54.4512 83.8473 47.83C90.7371 41.1907 98.9095 35.8951 107.911 32.2375C116.921 28.5721 126.619 26.7065 136.41 26.7552C146.202 26.8038 155.879 28.7658 164.849 32.5205C182.931 40.0561 197.311 53.9272 205.038 71.2864C208.872 79.8842 210.84 89.1379 210.821 98.4855C210.802 107.833 208.798 117.079 204.929 125.663C201.06 134.234 195.49 142.006 188.527 148.547C181.574 155.09 173.375 160.297 164.373 163.887C155.368 167.484 145.707 169.335 135.949 169.333Z" fill="#263238"/>
<path d="M112.844 163.918H160.34V200.303C160.34 205.12 158.339 209.74 154.778 213.147C151.217 216.553 146.388 218.467 141.352 218.467H131.832C126.796 218.467 121.966 216.553 118.405 213.147C114.844 209.74 112.844 205.12 112.844 200.303V163.918Z" fill="#455A64"/>
<path d="M168.046 163.918H105.145V173.425H168.046V163.918Z" fill="#37474F"/>
<path d="M168.046 181.166H105.145V190.673H168.046V181.166Z" fill="#37474F"/>
<path d="M164.245 198.42H108.94V207.927H164.245V198.42Z" fill="#37474F"/>
<path d="M196.689 99.3331C195.836 99.3331 195.018 99.009 194.415 98.432C193.812 97.855 193.473 97.0725 193.473 96.2565C193.473 63.927 160.237 45.2517 159.903 45.0671C159.163 44.6592 158.623 43.9868 158.402 43.1981C158.181 42.4094 158.296 41.5688 158.722 40.8614C159.149 40.1539 159.852 39.6375 160.676 39.4258C161.501 39.214 162.379 39.3242 163.119 39.7322C169.923 43.734 176.104 48.6307 181.483 54.2786C193.55 66.8191 199.925 81.3532 199.925 96.2565C199.925 96.6621 199.841 97.0637 199.678 97.4381C199.515 97.8126 199.276 98.1526 198.976 98.4386C198.675 98.7245 198.318 98.9507 197.926 99.1043C197.533 99.2578 197.113 99.3356 196.689 99.3331Z" fill="white"/>
<path d="M195.904 114.809C198.025 114.809 199.744 113.164 199.744 111.135C199.744 109.106 198.025 107.462 195.904 107.462C193.783 107.462 192.064 109.106 192.064 111.135C192.064 113.164 193.783 114.809 195.904 114.809Z" fill="white"/>
<path d="M105.839 223.39L113.526 223.248L121.245 223.168L136.618 223.101L151.991 223.168C157.137 223.218 162.244 223.273 167.371 223.39V223.427C162.225 223.544 157.118 223.599 151.991 223.648L136.618 223.716L121.245 223.648L113.526 223.562L105.839 223.427V223.39Z" fill="#263238"/>
<path d="M107.968 225.925L108.412 225.476L106.084 223.408L108.412 221.341L107.968 220.892L105.145 223.408L107.968 225.925Z" fill="#263238"/>
<path d="M165.216 225.925L164.772 225.476L167.1 223.408L164.772 221.341L165.216 220.892L168.04 223.408L165.216 225.925Z" fill="#263238"/>
<path d="M64.9297 19.5187L82.8436 19.371L100.758 19.291L136.592 19.2172L172.42 19.291L190.34 19.371L208.254 19.5187V19.531L190.34 19.6787L172.42 19.7648L136.592 19.8325L100.758 19.7648L82.8436 19.6787L64.9297 19.531V19.5187Z" fill="#263238"/>
<path d="M67.0587 22.0415L67.5026 21.5923L65.1741 19.5248L67.5026 17.4635L67.0587 17.0081L64.2285 19.5248L67.0587 22.0415Z" fill="#263238"/>
<path d="M206.125 22.0415L205.688 21.5923L208.01 19.5248L205.688 17.4635L206.125 17.0081L208.956 19.5248L206.125 22.0415Z" fill="#263238"/>
<path d="M90.6078 217.809C90.4856 213.379 90.4277 208.942 90.3763 204.505L90.2798 191.196L90.3505 177.892C90.402 173.456 90.4599 169.019 90.5821 164.583H90.6207C90.7429 169.019 90.8008 173.456 90.8523 177.892L90.923 191.196L90.8523 204.505C90.8008 208.942 90.7429 213.379 90.6207 217.809H90.6078Z" fill="#263238"/>
<path d="M93.2577 215.772L92.7882 215.354L90.6269 217.575L88.4656 215.354L87.9961 215.772L90.6269 218.48L93.2577 215.772Z" fill="#263238"/>
<path d="M93.2577 166.626L92.7882 167.044L90.6269 164.823L88.4656 167.044L87.9961 166.626L90.6269 163.918L93.2577 166.626Z" fill="#263238"/>
<path d="M213.027 217.809L212.873 194.254L212.815 170.693L212.712 123.571L212.815 76.449L212.873 52.8942L213.027 29.3332H213.034L213.194 52.8942L213.246 76.449L213.349 123.571L213.246 170.693L213.188 194.254L213.034 217.809H213.027Z" fill="#263238"/>
<path d="M215.664 215.772L215.188 215.354L213.033 217.575L210.872 215.354L210.402 215.772L213.033 218.48L215.664 215.772Z" fill="#263238"/>
<path d="M215.664 31.3699L215.188 31.7884L213.033 29.567L210.872 31.7884L210.402 31.3699L213.033 28.6625L215.664 31.3699Z" fill="#263238"/>
<path d="M119 163.918C115.662 164.041 112.323 164.103 108.985 164.152C105.646 164.201 102.308 164.201 98.9697 164.226C95.6313 164.25 92.2866 164.226 88.9482 164.152L83.9439 164.066C82.2715 164.017 80.6055 163.986 78.9331 163.918C80.6055 163.844 82.2715 163.82 83.9439 163.764L88.9482 163.678C92.2866 163.629 95.6313 163.635 98.9697 163.611C102.308 163.586 105.646 163.611 108.985 163.684C112.323 163.758 115.662 163.789 119 163.918Z" fill="#263238"/>
<path d="M131.35 218.48C126.982 218.609 122.615 218.664 118.247 218.713C113.88 218.763 109.512 218.763 105.145 218.787L92.0357 218.713L85.4876 218.627C83.3006 218.578 81.1201 218.547 78.9331 218.48C81.1201 218.412 83.3006 218.381 85.4876 218.326L92.0357 218.24L105.145 218.172C109.512 218.172 113.88 218.172 118.247 218.246C122.615 218.32 126.982 218.35 131.35 218.48Z" fill="#263238"/>
<path d="M105.144 163.918C105.273 169.585 105.337 175.259 105.389 180.926L105.466 197.94L105.389 214.948L105.299 223.458L105.144 231.961L104.984 223.458L104.894 214.948L104.823 197.94L104.894 180.926C104.945 175.259 105.009 169.585 105.144 163.918Z" fill="#263238"/>
<path d="M168.039 163.918C168.174 169.585 168.239 175.259 168.29 180.926L168.361 197.94L168.29 214.948L168.2 223.458L168.039 231.961L167.885 223.458L167.795 214.948L167.718 197.94L167.795 180.926C167.846 175.259 167.911 169.585 168.039 163.918Z" fill="#263238"/>
<path d="M139.808 218.48C146.974 218.35 154.139 218.295 161.305 218.246L182.808 218.172L204.305 218.24L215.06 218.326L225.808 218.48L215.06 218.627L204.305 218.713L182.808 218.787L161.305 218.713C154.159 218.664 146.993 218.609 139.808 218.48Z" fill="#263238"/>
<path d="M139.808 28.6625C146.974 28.5394 154.139 28.4779 161.305 28.4286L182.808 28.361L204.305 28.4286L215.06 28.5148L225.808 28.6625L215.06 28.8163L204.305 28.9025L182.808 28.9701L161.305 28.9025C154.159 28.8532 146.993 28.7917 139.808 28.6625Z" fill="#263238"/>
<path d="M64.2288 218.48L64.0744 192.777L64.0165 167.081L63.9136 115.676L64.0165 64.2778L64.0744 38.5755L64.2288 12.8793L64.3896 38.5755L64.4475 64.2778L64.5504 115.676L64.4475 167.081L64.3896 192.777L64.2288 218.48Z" fill="#263238"/>
<path d="M208.955 218.48L208.795 192.777L208.737 167.081L208.634 115.676L208.737 64.2778L208.795 38.5755L208.955 12.8793L209.11 38.5755L209.168 64.2778L209.271 115.676L209.168 167.081L209.11 192.777L208.955 218.48Z" fill="#263238"/>
<path d="M226.001 180.674C226.001 180.674 228.838 189.719 232.202 198.955C235.566 208.191 238.564 229.408 237.933 229.955C237.303 230.503 229.861 209.877 227.674 200.456C225.487 191.036 223.975 181.381 223.975 181.381L226.001 180.674Z" fill="url(#paint1_linear_33_692)"/>
<path d="M226.047 180.446L228.298 186.587L224.722 187.418L223.647 181.092L226.047 180.446Z" fill="#DBDBDB"/>
<path d="M226.053 180.446C226.304 179.667 226.358 178.843 226.21 178.04C226.063 177.238 225.718 176.481 225.204 175.831C223.641 173.696 224.097 172.034 224.097 172.034C224.097 172.034 220.071 176.957 223.647 181.092L226.053 180.446Z" fill="#455A64"/>
<path d="M224.129 171.788C224.335 172.102 223.917 173.634 224.67 174.865C225.422 176.096 221.73 177.892 222.032 176.065C222.38 173.997 223.756 171.216 224.129 171.788Z" fill="url(#paint2_linear_33_692)"/>
<path d="M243.638 185.965C243.638 185.965 240.898 193.288 237.714 200.733C234.53 208.179 231.108 225.513 231.597 225.962C232.086 226.411 239.168 209.785 241.368 202.124C243.568 194.463 245.298 186.612 245.298 186.612L243.638 185.965Z" fill="#A6A6A6"/>
<path d="M243.613 185.775L241.484 190.734L244.385 191.571L245.556 186.409L243.613 185.775Z" fill="#DBDBDB"/>
<path d="M243.606 185.781C243.915 181.695 247.305 178.397 247.305 178.397C247.305 178.397 248.682 183.19 245.555 186.433L243.606 185.781Z" fill="#455A64"/>
<path d="M235.212 176.366C235.212 176.366 236.293 184.076 237.785 192.002C239.277 199.927 238.834 217.556 238.248 217.926C237.663 218.295 234.389 200.592 233.9 192.66C233.411 184.729 233.475 176.662 233.475 176.662L235.212 176.366Z" fill="#37474F"/>
<path d="M235.276 176.188L236.28 181.461L233.257 181.695L233.237 176.416L235.276 176.188Z" fill="#DBDBDB"/>
<path d="M233.237 176.416C233.237 176.416 235.167 176.231 235.276 176.188C235.877 174.385 236.356 172.548 236.711 170.687C236.595 170.539 230.201 171.401 230.234 171.973C230.266 172.545 233.237 176.416 233.237 176.416Z" fill="#455A64"/>
<path d="M242.281 205.558H225.371C223.815 205.558 222.553 206.764 222.553 208.253V230.017C222.553 231.505 223.815 232.712 225.371 232.712H242.281C243.837 232.712 245.098 231.505 245.098 230.017V208.253C245.098 206.764 243.837 205.558 242.281 205.558Z" fill="#455A64"/>
<path d="M242.249 201.269H225.396V205.558H242.249V201.269Z" fill="#455A64"/>
<defs>
<linearGradient id="paint0_linear_33_692" x1="154.085" y1="40.9691" x2="154.085" y2="158.036" gradientUnits="userSpaceOnUse">
<stop stop-color="#FFA122"/>
<stop offset="1" stop-color="#FF7205"/>
</linearGradient>
<linearGradient id="paint1_linear_33_692" x1="230.996" y1="180.674" x2="230.996" y2="229.966" gradientUnits="userSpaceOnUse">
<stop stop-color="#FFA122"/>
<stop offset="1" stop-color="#FF7205"/>
</linearGradient>
<linearGradient id="paint2_linear_33_692" x1="223.393" y1="171.712" x2="223.393" y2="176.844" gradientUnits="userSpaceOnUse">
<stop stop-color="#FFA122"/>
<stop offset="1" stop-color="#FF7205"/>
</linearGradient>
</defs>
</svg>
