<svg width="17" height="17" viewBox="0 0 17 17" fill="none" xmlns="http://www.w3.org/2000/svg">
<path d="M14.58 0.52002H2.42002C1.37122 0.52002 0.52002 1.37122 0.52002 2.42002V14.58C0.52002 15.6288 1.37122 16.48 2.42002 16.48H14.58C15.6288 16.48 16.48 15.6288 16.48 14.58V2.42002C16.48 1.37122 15.6288 0.52002 14.58 0.52002ZM13.06 6.22002H12.3C11.4868 6.22002 11.16 6.41002 11.16 6.98002V8.12002H13.06L12.68 10.02H11.16V15.72H9.26002V10.02H7.74002V8.12002H9.26002V6.98002C9.26002 5.46002 10.02 4.32002 11.54 4.32002C12.642 4.32002 13.06 4.70002 13.06 4.70002V6.22002Z" fill="#A1A1AA"/>
</svg>
