<svg width="18" height="17" viewBox="0 0 18 17" fill="none" xmlns="http://www.w3.org/2000/svg">
<path d="M16.9654 6.83528H16.2826V6.8H8.65352V10.2H13.4442C12.7453 12.1792 10.8672 13.6 8.65352 13.6C5.84475 13.6 3.56746 11.3165 3.56746 8.50001C3.56746 5.68353 5.84475 3.4 8.65352 3.4C9.95004 3.4 11.1296 3.89045 12.0277 4.69158L14.4254 2.28735C12.9114 0.872526 10.8863 0 8.65352 0C3.97223 0 0.176758 3.80588 0.176758 8.50001C0.176758 13.1941 3.97223 17 8.65352 17C13.3348 17 17.1303 13.1941 17.1303 8.50001C17.1303 7.93008 17.0718 7.37375 16.9654 6.83528Z" fill="#FBC02D"/>
<path d="M1.1543 4.54368L3.93934 6.59175C4.69292 4.7209 6.51797 3.4 8.65369 3.4C9.95021 3.4 11.1298 3.89045 12.0279 4.69158L14.4255 2.28735C12.9116 0.872526 10.8865 0 8.65369 0C5.39776 0 2.57415 1.84323 1.1543 4.54368Z" fill="#E53935"/>
<path d="M8.65386 17C10.8434 17 12.8329 16.1597 14.3371 14.7934L11.7135 12.5672C10.8625 13.2136 9.80458 13.6 8.65386 13.6C6.44905 13.6 4.57696 12.1902 3.87169 10.2229L1.10742 12.3585C2.51033 15.1113 5.35937 17 8.65386 17Z" fill="#4CAF50"/>
<path d="M16.9652 6.83532L16.9584 6.80005H16.2824H8.65332V10.2001H13.444C13.1083 11.1508 12.4984 11.9706 11.7117 12.5677L11.713 12.5669L14.3366 14.793C14.1509 14.9622 17.1301 12.7501 17.1301 8.50005C17.1301 7.93012 17.0716 7.3738 16.9652 6.83532Z" fill="#1565C0"/>
</svg>
