<svg width="17" height="17" viewBox="0 0 17 17" fill="none" xmlns="http://www.w3.org/2000/svg">
<path d="M4.99873 0.100098C2.29743 0.100098 0.100098 2.29946 0.100098 5.00146V12.0015C0.100098 14.7028 2.29946 16.9001 5.00146 16.9001H12.0015C14.7028 16.9001 16.9001 14.7007 16.9001 11.9987V4.99873C16.9001 2.29743 14.7007 0.100098 11.9987 0.100098H4.99873ZM13.4001 2.9001C13.7865 2.9001 14.1001 3.2137 14.1001 3.6001C14.1001 3.9865 13.7865 4.3001 13.4001 4.3001C13.0137 4.3001 12.7001 3.9865 12.7001 3.6001C12.7001 3.2137 13.0137 2.9001 13.4001 2.9001ZM8.5001 4.3001C10.8164 4.3001 12.7001 6.1838 12.7001 8.5001C12.7001 10.8164 10.8164 12.7001 8.5001 12.7001C6.1838 12.7001 4.3001 10.8164 4.3001 8.5001C4.3001 6.1838 6.1838 4.3001 8.5001 4.3001ZM8.5001 5.7001C7.75749 5.7001 7.0453 5.9951 6.5202 6.5202C5.9951 7.0453 5.7001 7.75749 5.7001 8.5001C5.7001 9.2427 5.9951 9.95489 6.5202 10.48C7.0453 11.0051 7.75749 11.3001 8.5001 11.3001C9.2427 11.3001 9.95489 11.0051 10.48 10.48C11.0051 9.95489 11.3001 9.2427 11.3001 8.5001C11.3001 7.75749 11.0051 7.0453 10.48 6.5202C9.95489 5.9951 9.2427 5.7001 8.5001 5.7001Z" fill="#A1A1AA"/>
</svg>
