<svg width="25" height="12" viewBox="0 0 25 12" fill="none" xmlns="http://www.w3.org/2000/svg">
<path d="M12.8744 6.75C14.5 6.75 15.936 7.14 17.1028 7.65C18.1799 8.13 18.858 9.21 18.858 10.38V12H6.89082V10.39C6.89082 9.21 7.56896 8.13 8.64601 7.66C9.81281 7.14 11.2489 6.75 12.8744 6.75ZM4.89629 7C5.99328 7 6.89082 6.1 6.89082 5C6.89082 3.9 5.99328 3 4.89629 3C3.7993 3 2.90176 3.9 2.90176 5C2.90176 6.1 3.7993 7 4.89629 7ZM6.0232 8.1C5.65421 8.04 5.28522 8 4.89629 8C3.909 8 2.97157 8.21 2.12389 8.58C1.38591 8.9 0.907227 9.62 0.907227 10.43V12H5.39492V10.39C5.39492 9.56 5.62429 8.78 6.0232 8.1ZM20.8525 7C21.9495 7 22.8471 6.1 22.8471 5C22.8471 3.9 21.9495 3 20.8525 3C19.7555 3 18.858 3.9 18.858 5C18.858 6.1 19.7555 7 20.8525 7ZM24.8416 10.43C24.8416 9.62 24.3629 8.9 23.6249 8.58C22.7773 8.21 21.8398 8 20.8525 8C20.4636 8 20.0946 8.04 19.7256 8.1C20.1245 8.78 20.3539 9.56 20.3539 10.39V12H24.8416V10.43ZM12.8744 0C14.5299 0 15.8662 1.34 15.8662 3C15.8662 4.66 14.5299 6 12.8744 6C11.219 6 9.88262 4.66 9.88262 3C9.88262 1.34 11.219 0 12.8744 0Z" fill="url(#paint0_linear_58_117)"/>
<defs>
<linearGradient id="paint0_linear_58_117" x1="12.8744" y1="0" x2="12.8744" y2="12" gradientUnits="userSpaceOnUse">
<stop stop-color="#FFA122"/>
<stop offset="1" stop-color="#FF7205"/>
</linearGradient>
</defs>
</svg>
