<svg width="273" height="247" viewBox="0 0 273 247" fill="none" xmlns="http://www.w3.org/2000/svg">
<path d="M220.665 35.2341H12.5986C6.09821 35.2341 0.828613 40.5201 0.828613 47.0407V216.86C0.828613 223.381 6.09821 228.667 12.5986 228.667H220.665C227.165 228.667 232.435 223.381 232.435 216.86V47.0407C232.435 40.5201 227.165 35.2341 220.665 35.2341Z" fill="white"/>
<path d="M220.664 229.036H12.6127C9.39412 229.032 6.30839 227.748 4.03183 225.466C1.75527 223.184 0.473609 220.089 0.467773 216.86V47.0407C0.473609 43.8121 1.75527 40.7176 4.03183 38.4353C6.30839 36.1531 9.39412 34.8693 12.6127 34.8654H220.664C223.883 34.8693 226.968 36.1531 229.245 38.4353C231.522 40.7176 232.803 43.8121 232.809 47.0407V216.86C232.803 220.089 231.522 223.184 229.245 225.466C226.968 227.748 223.883 229.032 220.664 229.036ZM12.6127 35.6028C9.58851 35.6048 6.68864 36.8102 4.54953 38.9546C2.41042 41.099 1.20683 44.0071 1.20294 47.0407V216.86C1.20683 219.894 2.41042 222.802 4.54953 224.947C6.68864 227.091 9.58851 228.296 12.6127 228.298H220.664C223.688 228.296 226.588 227.091 228.727 224.947C230.866 222.802 232.07 219.894 232.074 216.86V47.0407C232.07 44.0071 230.866 41.099 228.727 38.9546C226.588 36.8102 223.688 35.6048 220.664 35.6028H12.6127Z" fill="#263238"/>
<path d="M42.3874 178.992H37.4912V213.011H42.3874V178.992Z" fill="url(#paint0_linear_27_805)"/>
<path d="M33.1096 204.508H28.2134V213.011H33.1096V204.508Z" fill="url(#paint1_linear_27_805)"/>
<path d="M50.8566 196.005H45.9604V213.018H50.8566V196.005Z" fill="url(#paint2_linear_27_805)"/>
<path d="M59.1853 186.102H54.2891V213.018H59.1853V186.102Z" fill="url(#paint3_linear_27_805)"/>
<path d="M68.7868 205.821H63.8906V213.018H68.7868V205.821Z" fill="url(#paint4_linear_27_805)"/>
<path d="M217.445 205.098C217.255 204.867 217.158 204.572 217.173 204.272C217.159 203.973 217.256 203.679 217.445 203.446C217.535 203.341 217.649 203.259 217.776 203.205C217.904 203.151 218.042 203.128 218.18 203.137C218.318 203.13 218.455 203.154 218.583 203.208C218.71 203.262 218.823 203.343 218.915 203.446C219.092 203.685 219.187 203.975 219.187 204.272C219.187 204.57 219.092 204.859 218.915 205.098C218.824 205.198 218.714 205.278 218.59 205.333C218.467 205.387 218.333 205.415 218.199 205.415C218.064 205.415 217.93 205.387 217.807 205.333C217.683 205.278 217.573 205.198 217.482 205.098H217.445ZM218.533 204.811C218.629 204.648 218.675 204.461 218.665 204.272C218.676 204.086 218.63 203.901 218.533 203.741C218.493 203.679 218.437 203.628 218.371 203.595C218.305 203.561 218.232 203.545 218.158 203.55C218.086 203.548 218.014 203.565 217.95 203.599C217.886 203.632 217.831 203.681 217.79 203.741C217.689 203.899 217.64 204.085 217.651 204.272C217.638 204.46 217.687 204.646 217.79 204.803C217.829 204.865 217.884 204.915 217.948 204.949C218.013 204.983 218.085 204.998 218.158 204.995C218.229 204.996 218.298 204.98 218.361 204.948C218.424 204.916 218.478 204.869 218.518 204.811H218.533ZM220.643 203.173H221.224L218.393 207.333H217.783L220.643 203.173ZM220.158 207.06C219.969 206.827 219.872 206.533 219.886 206.234C219.87 205.934 219.967 205.64 220.158 205.408C220.249 205.308 220.359 205.228 220.483 205.173C220.606 205.119 220.74 205.091 220.874 205.091C221.009 205.091 221.143 205.119 221.266 205.173C221.39 205.228 221.5 205.308 221.591 205.408C221.784 205.638 221.884 205.933 221.871 206.234C221.882 206.534 221.783 206.829 221.591 207.06C221.499 207.158 221.388 207.236 221.265 207.289C221.142 207.343 221.009 207.37 220.874 207.37C220.74 207.37 220.607 207.343 220.484 207.289C220.361 207.236 220.25 207.158 220.158 207.06ZM221.246 206.765C221.347 206.607 221.396 206.421 221.385 206.234C221.398 206.046 221.349 205.86 221.246 205.703C221.207 205.641 221.152 205.591 221.088 205.557C221.023 205.524 220.951 205.508 220.878 205.511C220.805 205.507 220.732 205.522 220.667 205.554C220.601 205.586 220.545 205.635 220.503 205.696C220.401 205.856 220.352 206.044 220.364 206.234C220.351 206.421 220.4 206.608 220.503 206.765C220.546 206.823 220.601 206.87 220.665 206.902C220.729 206.935 220.799 206.952 220.871 206.952C220.942 206.952 221.013 206.935 221.077 206.902C221.141 206.87 221.196 206.823 221.238 206.765H221.246Z" fill="url(#paint5_linear_27_805)"/>
<path d="M193.332 184.295H209.505C209.658 184.305 209.81 184.268 209.94 184.188C210.071 184.108 210.173 183.989 210.233 183.848C210.293 183.706 210.308 183.55 210.275 183.4C210.242 183.25 210.163 183.114 210.049 183.012L201.962 174.737C201.894 174.662 201.81 174.603 201.717 174.562C201.624 174.521 201.524 174.5 201.422 174.5C201.32 174.5 201.22 174.521 201.127 174.562C201.034 174.603 200.951 174.662 200.882 174.737L192.795 183.012C192.682 183.114 192.603 183.249 192.57 183.398C192.537 183.547 192.551 183.703 192.61 183.844C192.669 183.985 192.77 184.104 192.899 184.184C193.028 184.265 193.18 184.304 193.332 184.295Z" fill="#EBEBEB"/>
<path d="M206.807 182.753H196.448V199.235H206.807V182.753Z" fill="#EBEBEB"/>
<path d="M203.352 213.048V216.411H193.06V213.748L197.691 209.449C198.011 209.172 198.282 208.843 198.493 208.476C198.619 208.232 198.687 207.962 198.691 207.687C198.698 207.548 198.673 207.409 198.618 207.281C198.563 207.153 198.48 207.04 198.375 206.949C198.107 206.755 197.779 206.661 197.449 206.684C197.055 206.686 196.67 206.799 196.337 207.01C196.004 207.222 195.738 207.522 195.567 207.878L192.31 206.241C192.799 205.324 193.542 204.569 194.449 204.066C195.496 203.509 196.669 203.234 197.853 203.269C198.774 203.254 199.688 203.422 200.544 203.763C201.273 204.056 201.907 204.546 202.374 205.179C202.816 205.792 203.048 206.532 203.036 207.288C203.039 207.98 202.885 208.663 202.588 209.287C202.135 210.087 201.542 210.799 200.838 211.389L199.007 213.055L203.352 213.048Z" fill="url(#paint6_linear_27_805)"/>
<path d="M207.027 215.902C206.133 215.35 205.42 214.548 204.976 213.594C204.486 212.453 204.234 211.225 204.234 209.984C204.234 208.742 204.486 207.514 204.976 206.374C205.422 205.419 206.134 204.615 207.027 204.058C207.945 203.536 208.982 203.262 210.038 203.262C211.093 203.262 212.13 203.536 213.048 204.058C213.938 204.619 214.649 205.422 215.099 206.374C215.589 207.514 215.842 208.742 215.842 209.984C215.842 211.225 215.589 212.453 215.099 213.594C214.651 214.545 213.939 215.346 213.048 215.902C212.132 216.428 211.094 216.705 210.038 216.705C208.982 216.705 207.944 216.428 207.027 215.902ZM211.497 210.002C211.497 207.844 211.007 206.762 210.027 206.757C209.047 206.753 208.556 207.834 208.556 210.002C208.556 212.17 209.047 213.254 210.027 213.254C211.007 213.254 211.497 212.163 211.497 209.98V210.002Z" fill="url(#paint7_linear_27_805)"/>
<path d="M48.4826 112.334C48.2923 112.103 48.1953 111.808 48.2106 111.508C48.1967 111.209 48.2935 110.915 48.4826 110.683C48.575 110.579 48.6882 110.495 48.8149 110.438C48.9416 110.382 49.0789 110.352 49.2177 110.352C49.3566 110.352 49.4938 110.382 49.6205 110.438C49.7472 110.495 49.8605 110.579 49.9529 110.683C50.1341 110.919 50.2324 111.21 50.2324 111.508C50.2324 111.807 50.1341 112.097 49.9529 112.334C49.8618 112.44 49.7489 112.526 49.6221 112.584C49.4952 112.642 49.3573 112.672 49.2177 112.672C49.0782 112.672 48.9402 112.642 48.8134 112.584C48.6865 112.526 48.5737 112.44 48.4826 112.334ZM49.578 112.047C49.6744 111.885 49.7205 111.697 49.7103 111.508C49.7213 111.322 49.6751 111.137 49.578 110.977C49.5347 110.917 49.4772 110.867 49.4106 110.834C49.344 110.8 49.2702 110.784 49.1957 110.786C49.1235 110.786 49.0525 110.803 48.9885 110.837C48.9245 110.87 48.8695 110.918 48.8281 110.977C48.7266 111.135 48.6777 111.321 48.6884 111.508C48.6755 111.696 48.7246 111.883 48.8281 112.039C48.8686 112.1 48.9234 112.149 48.9876 112.182C49.0518 112.216 49.1233 112.232 49.1957 112.231C49.2696 112.234 49.3432 112.219 49.4099 112.187C49.4766 112.155 49.5344 112.107 49.578 112.047ZM51.6879 110.41H52.2613L49.4309 114.598H48.8501L51.6879 110.41ZM51.2027 114.296C51.011 114.065 50.9115 113.771 50.9233 113.47C50.9101 113.169 51.0098 112.875 51.2027 112.644C51.2927 112.538 51.4059 112.455 51.5334 112.4C51.6609 112.345 51.7993 112.32 51.9378 112.327C52.0762 112.321 52.2141 112.347 52.3413 112.402C52.4685 112.457 52.5819 112.54 52.673 112.644C52.8633 112.876 52.9603 113.17 52.945 113.47C52.9589 113.77 52.862 114.064 52.673 114.296C52.5812 114.399 52.4675 114.481 52.3404 114.534C52.2132 114.588 52.0756 114.612 51.9378 114.606C51.7998 114.614 51.6616 114.591 51.534 114.537C51.4065 114.484 51.2931 114.401 51.2027 114.296ZM52.2907 114.001C52.3861 113.841 52.4322 113.656 52.4231 113.47C52.434 113.284 52.3878 113.098 52.2907 112.939C52.2467 112.884 52.1907 112.839 52.1271 112.808C52.0635 112.778 51.9938 112.762 51.9231 112.762C51.8525 112.762 51.7828 112.778 51.7192 112.808C51.6556 112.839 51.5996 112.884 51.5556 112.939C51.4591 113.101 51.4131 113.289 51.4232 113.477C51.4123 113.664 51.4584 113.849 51.5556 114.008C51.5972 114.069 51.6533 114.119 51.7188 114.152C51.7842 114.186 51.857 114.202 51.9305 114.2C52.0019 114.198 52.0717 114.178 52.1343 114.144C52.1968 114.109 52.2504 114.06 52.2907 114.001Z" fill="url(#paint8_linear_27_805)"/>
<path d="M8.74658 111.339H23.5307C23.6656 111.338 23.7971 111.297 23.909 111.221C24.021 111.146 24.1086 111.04 24.1609 110.915C24.2133 110.79 24.2282 110.653 24.2037 110.52C24.1793 110.387 24.1165 110.264 24.0233 110.166L16.6275 102.593C16.5634 102.528 16.4872 102.477 16.4033 102.442C16.3194 102.407 16.2295 102.389 16.1387 102.389C16.0478 102.389 15.9579 102.407 15.874 102.442C15.7902 102.477 15.714 102.528 15.6498 102.593L8.26137 110.174C8.17089 110.271 8.11033 110.393 8.08696 110.524C8.06358 110.655 8.07838 110.79 8.12957 110.913C8.18077 111.036 8.26619 111.142 8.37561 111.217C8.48504 111.293 8.61383 111.335 8.74658 111.339Z" fill="#EBEBEB"/>
<path d="M21.0896 109.93H11.606V125.011H21.0896V109.93Z" fill="#EBEBEB"/>
<path d="M33.9258 110.955V123.809H29.581V114.222H27.3755V110.955H33.9258Z" fill="url(#paint9_linear_27_805)"/>
<path d="M38.2929 123.3C37.4003 122.747 36.6876 121.945 36.2418 120.992C35.7521 119.852 35.4995 118.624 35.4995 117.382C35.4995 116.141 35.7521 114.913 36.2418 113.772C36.6853 112.816 37.3984 112.011 38.2929 111.457C39.2109 110.935 40.2481 110.66 41.3034 110.66C42.3587 110.66 43.396 110.935 44.3139 111.457C45.2085 112.011 45.9215 112.816 46.365 113.772C46.8547 114.913 47.1073 116.141 47.1073 117.382C47.1073 118.624 46.8547 119.852 46.365 120.992C45.9113 121.949 45.188 122.751 44.2845 123.3C43.368 123.827 42.3302 124.104 41.274 124.104C40.2179 124.104 39.18 123.827 38.2635 123.3H38.2929ZM42.7701 117.401C42.7701 115.233 42.2775 114.156 41.2998 114.156C40.322 114.156 39.8294 115.233 39.8294 117.401C39.8294 119.569 40.322 120.653 41.2998 120.653C42.2775 120.653 42.7701 119.547 42.7701 117.379V117.401Z" fill="url(#paint10_linear_27_805)"/>
<path d="M71.5221 213.181C71.5221 213.284 61.5532 213.372 49.2613 213.372C36.9693 213.372 26.9932 213.284 26.9932 213.181C26.9932 213.077 36.962 212.989 49.2613 212.989C61.5606 212.989 71.5221 213.077 71.5221 213.181Z" fill="#263238"/>
<path d="M252.755 0.242126H154.096C150.791 0.242126 148.112 2.92969 148.112 6.24496V58.8841C148.112 62.1994 150.791 64.8869 154.096 64.8869H252.755C256.06 64.8869 258.739 62.1994 258.739 58.8841V6.24496C258.739 2.92969 256.06 0.242126 252.755 0.242126Z" fill="white"/>
<path d="M252.754 64.8869C252.754 64.8869 253.055 64.8869 253.629 64.7984C254.741 64.6223 255.782 64.1352 256.631 63.393C257.48 62.6509 258.103 61.6837 258.429 60.6023C258.649 59.7407 258.731 58.8496 258.672 57.9623C258.672 57.011 258.672 55.9933 258.672 54.9166C258.672 46.2811 258.635 33.7961 258.613 18.3834C258.613 14.5241 258.613 10.4878 258.613 6.27447C258.614 5.22114 258.333 4.18688 257.8 3.27912C257.268 2.37135 256.502 1.62318 255.584 1.11232C254.634 0.59303 253.563 0.338394 252.482 0.374872H249.1H220.237H154.073C152.648 0.373377 151.273 0.899282 150.211 1.85183C149.148 2.80437 148.474 4.11657 148.316 5.53702C148.243 8.39832 148.316 11.3186 148.28 14.1725C148.28 19.9099 148.28 25.5637 148.28 31.1339V47.4905C148.28 50.1601 148.28 52.8026 148.28 55.4181C148.28 56.716 148.28 58.0287 148.28 59.2971C148.369 60.5406 148.854 61.7224 149.665 62.6679C150.475 63.6134 151.567 64.2724 152.779 64.5477C153.378 64.6715 153.991 64.721 154.602 64.6952H177.804H202.954L239.374 64.7542L249.277 64.7911H239.374L202.954 64.8501H177.804H154.631C153.993 64.8716 153.354 64.8196 152.727 64.6952C151.441 64.4007 150.283 63.7003 149.423 62.6969C148.563 61.6934 148.046 60.4398 147.949 59.1201C147.905 57.8074 147.949 56.5243 147.949 55.219V47.4905C147.949 42.1514 147.949 36.7065 147.949 31.156V14.1947C147.949 11.326 147.905 8.46469 147.949 5.52227C148.12 4.00785 148.84 2.60929 149.972 1.59234C151.103 0.575387 152.568 0.0109032 154.087 0.00614743H220.252H249.115H252.474C253.606 -0.0437528 254.731 0.21086 255.731 0.743597C256.693 1.28394 257.493 2.07173 258.05 3.02579C258.607 3.97984 258.9 5.06562 258.9 6.17122C258.9 10.3796 258.9 14.4159 258.9 18.2801C258.9 33.7002 258.856 46.1778 258.841 54.8134C258.841 55.89 258.841 56.9077 258.841 57.859C258.892 58.7597 258.802 59.6628 258.576 60.536C258.157 61.8984 257.272 63.0685 256.077 63.8397C255.348 64.3106 254.525 64.6152 253.665 64.7321C253.449 64.7662 253.23 64.7835 253.011 64.7837L252.754 64.8869Z" fill="#263238"/>
<path d="M165.446 41.1337H162.271V52.6895H165.446V41.1337Z" fill="url(#paint11_linear_27_805)"/>
<path d="M176.754 31.7902H173.578V52.6968H176.754V31.7902Z" fill="url(#paint12_linear_27_805)"/>
<path d="M171.467 18.081H167.549V52.6969H171.467V18.081Z" fill="#455A64"/>
<path d="M188.061 44.7841H184.885V52.6895H188.061V44.7841Z" fill="url(#paint13_linear_27_805)"/>
<path d="M182.407 44.7841H179.231V52.6895H182.407V44.7841Z" fill="#455A64"/>
<path d="M199.36 39.7399H196.184V52.6895H199.36V39.7399Z" fill="url(#paint14_linear_27_805)"/>
<path d="M193.707 28.4938H190.531V52.6895H193.707V28.4938Z" fill="#455A64"/>
<path d="M216.32 28.4938H213.144V52.6895H216.32V28.4938Z" fill="#455A64"/>
<path d="M205.013 16.2448H201.837V52.6895H205.013V16.2448Z" fill="#455A64"/>
<path d="M210.666 43.6631H207.49V52.6895H210.666V43.6631Z" fill="url(#paint15_linear_27_805)"/>
<path d="M238.926 46.0672H235.75V52.6969H238.926V46.0672Z" fill="#455A64"/>
<path d="M227.612 16.938H224.444V52.6895H227.612V16.938Z" fill="#455A64"/>
<path d="M233.266 24.2535H230.097V52.6969H233.266V24.2535Z" fill="url(#paint16_linear_27_805)"/>
<path d="M221.959 23.2211H218.79V52.6969H221.959V23.2211Z" fill="url(#paint17_linear_27_805)"/>
<path d="M244.579 28.4938H241.403V52.6895H244.579V28.4938Z" fill="url(#paint18_linear_27_805)"/>
<path d="M169.366 56.1187H162.808C162.56 56.1187 162.359 56.3201 162.359 56.5685V56.9815C162.359 57.2299 162.56 57.4313 162.808 57.4313H169.366C169.613 57.4313 169.814 57.2299 169.814 56.9815V56.5685C169.814 56.3201 169.613 56.1187 169.366 56.1187Z" fill="#E0E0E0"/>
<path d="M190.965 56.1187H184.407C184.159 56.1187 183.958 56.3201 183.958 56.5685V56.9815C183.958 57.2299 184.159 57.4313 184.407 57.4313H190.965C191.212 57.4313 191.413 57.2299 191.413 56.9815V56.5685C191.413 56.3201 191.212 56.1187 190.965 56.1187Z" fill="#E0E0E0"/>
<path d="M210.043 56.1187H203.485C203.237 56.1187 203.037 56.3201 203.037 56.5685V56.9815C203.037 57.2299 203.237 57.4313 203.485 57.4313H210.043C210.29 57.4313 210.491 57.2299 210.491 56.9815V56.5685C210.491 56.3201 210.29 56.1187 210.043 56.1187Z" fill="#E0E0E0"/>
<path d="M229.686 56.1187H223.129C222.881 56.1187 222.68 56.3201 222.68 56.5685V56.9815C222.68 57.2299 222.881 57.4313 223.129 57.4313H229.686C229.934 57.4313 230.135 57.2299 230.135 56.9815V56.5685C230.135 56.3201 229.934 56.1187 229.686 56.1187Z" fill="#E0E0E0"/>
<path d="M246.33 56.1187H239.773C239.525 56.1187 239.324 56.3201 239.324 56.5685V56.9815C239.324 57.2299 239.525 57.4313 239.773 57.4313H246.33C246.578 57.4313 246.779 57.2299 246.779 56.9815V56.5685C246.779 56.3201 246.578 56.1187 246.33 56.1187Z" fill="#E0E0E0"/>
<path d="M248.66 52.6895C248.66 52.8001 228.238 52.8812 203.08 52.8812C177.923 52.8812 157.5 52.8001 157.5 52.6895C157.5 52.5789 177.916 52.4978 203.08 52.4978C228.245 52.4978 248.66 52.5863 248.66 52.6895Z" fill="#263238"/>
<path d="M158.669 11.1269C159.631 11.1269 160.411 10.3444 160.411 9.3791C160.411 8.41384 159.631 7.63135 158.669 7.63135C157.707 7.63135 156.927 8.41384 156.927 9.3791C156.927 10.3444 157.707 11.1269 158.669 11.1269Z" fill="#E0E0E0"/>
<path d="M165.153 9.37915C165.16 9.72503 165.065 10.0653 164.879 10.3568C164.693 10.6483 164.426 10.878 164.11 11.0168C163.794 11.1555 163.444 11.1971 163.104 11.1363C162.765 11.0754 162.451 10.9148 162.202 10.6749C161.954 10.435 161.782 10.1265 161.709 9.78846C161.635 9.45046 161.663 9.09817 161.789 8.7762C161.916 8.45424 162.134 8.17709 162.417 7.97986C162.701 7.78262 163.036 7.67418 163.381 7.66827C163.841 7.6623 164.285 7.83855 164.617 8.1588C164.949 8.47906 165.141 8.91752 165.153 9.37915Z" fill="#E0E0E0"/>
<path d="M168.093 11.1269C169.055 11.1269 169.835 10.3444 169.835 9.3791C169.835 8.41384 169.055 7.63135 168.093 7.63135C167.131 7.63135 166.351 8.41384 166.351 9.3791C166.351 10.3444 167.131 11.1269 168.093 11.1269Z" fill="#E0E0E0"/>
<path d="M74.1841 150.284L85.0204 172.938L90.6811 171.463L126.881 202.606L137.563 182.363C137.563 182.363 116.008 172.414 112.141 164.457C108.274 156.5 111.905 156.736 111.905 156.736L102.951 142.798L74.1841 150.284Z" fill="#263238"/>
<path d="M88.189 120.085C88.189 120.085 99.5473 116.737 117.713 103.861C130.998 94.4218 141.378 83.2126 146.002 77.8218C147.046 76.5681 148.541 75.7776 150.162 75.6217C151.783 75.4657 153.4 75.9568 154.663 76.9885C158.662 80.3734 164.168 88.8541 170.167 110.41C180.753 148.41 173.159 155.637 169.976 155.07C166.793 154.502 145.841 147.548 132.056 146.958C118.272 146.368 97.2609 150.483 97.2609 150.483L88.189 120.085Z" fill="#E0E0E0"/>
<path d="M88.189 120.085C88.2199 120.255 88.2616 120.422 88.314 120.586C88.4169 120.963 88.5565 121.464 88.7403 122.113L90.4533 128.064C91.9971 133.33 94.2247 140.962 97.033 150.571L97.0918 150.778L97.3124 150.741C103.289 149.649 110.126 148.587 117.676 147.857C121.455 147.503 125.418 147.231 129.527 147.245C133.789 147.317 138.037 147.759 142.224 148.565C150.935 150.107 159.934 152.747 169.425 155.357L169.888 155.46H170.424C170.777 155.434 171.124 155.355 171.454 155.224C171.748 155.047 172.049 154.885 172.329 154.686L173.064 153.949C173.875 152.917 174.479 151.737 174.843 150.475C175.575 147.973 175.944 145.377 175.938 142.769C175.935 137.491 175.423 132.226 174.409 127.047C174.188 125.881 173.968 124.716 173.755 123.558C173.542 122.401 173.233 121.258 172.983 120.114C172.49 117.821 171.909 115.564 171.307 113.33C170.167 108.854 168.851 104.481 167.432 100.248C166.063 96.0701 164.443 91.9795 162.58 87.9986C160.72 84.127 158.603 80.3955 155.655 77.4457C154.933 76.6785 154.059 76.0707 153.089 75.6611C152.108 75.2955 151.054 75.1717 150.015 75.3C148.976 75.4283 147.983 75.8051 147.12 76.3985C146.322 76.9853 145.61 77.6802 145.002 78.4634C142.459 81.3689 139.893 84.0975 137.342 86.6638C132.619 91.4268 127.613 95.899 122.352 100.056C114.703 106.021 106.532 111.278 97.9373 115.764C94.8863 117.327 92.4456 118.404 90.7767 119.082C89.946 119.429 89.3064 119.672 88.8727 119.82C88.6504 119.894 88.432 119.981 88.2184 120.078C88.4488 120.04 88.6752 119.98 88.8947 119.901C89.3358 119.761 89.9901 119.539 90.8356 119.215C92.5264 118.581 94.9892 117.548 98.0696 116.022C106.74 111.626 114.981 106.424 122.683 100.484C127.989 96.3408 133.034 91.8732 137.791 87.1063C140.364 84.5473 142.937 81.8114 145.502 78.9058C146.079 78.1566 146.757 77.4915 147.517 76.9295C148.292 76.4112 149.179 76.0852 150.105 75.9782C151.058 75.8674 152.023 75.9892 152.919 76.3333C153.815 76.6774 154.615 77.2336 155.251 77.9545C158.081 80.8011 160.176 84.4809 162.007 88.3157C163.852 92.2728 165.455 96.3387 166.807 100.491C168.212 104.717 169.528 109.06 170.66 113.529C171.255 115.741 171.829 117.998 172.321 120.277C172.571 121.42 172.85 122.555 173.056 123.706C173.262 124.856 173.49 126.021 173.711 127.179C174.713 132.32 175.218 137.546 175.218 142.784C175.228 145.314 174.874 147.833 174.166 150.261C173.835 151.428 173.284 152.519 172.542 153.477L171.924 154.081C171.696 154.244 171.454 154.376 171.189 154.531C170.688 154.734 170.133 154.76 169.616 154.605C160.184 152.031 151.09 149.384 142.349 147.865C138.132 147.066 133.855 146.637 129.564 146.582C125.41 146.582 121.477 146.877 117.647 147.245C110.075 147.983 103.238 149.111 97.2462 150.254L97.5256 150.424L90.74 128.138C89.9387 125.557 89.3211 123.558 88.8947 122.172C88.6889 121.516 88.5271 120.999 88.4022 120.623C88.2772 120.247 88.1963 120.092 88.189 120.085Z" fill="#263238"/>
<path d="M58.5393 152.267L65.9203 151.132L61.6784 141.316L55.4736 144.635L58.5393 152.267Z" fill="url(#paint19_linear_27_805)"/>
<path d="M60.6934 140.321L63.9943 147.968L65.7955 152.142C66.9602 154.894 69.1426 157.085 71.8843 158.257C74.626 159.429 77.7137 159.489 80.4987 158.425L110.449 150.195L98.275 112.121L67.9568 123.359C64.849 124.761 62.3784 127.281 61.0335 130.422C59.6886 133.562 59.5672 137.095 60.6934 140.321Z" fill="url(#paint20_linear_27_805)"/>
<g opacity="0.3">
<path d="M167.688 112.46C173.187 132.725 174.04 150.166 169.585 151.412C165.13 152.658 157.087 137.238 151.581 116.973C146.075 96.7078 145.229 79.2746 149.677 78.0283C154.125 76.782 162.189 92.202 167.688 112.46Z" fill="black"/>
</g>
<path d="M148.766 105.071C148.766 105.071 159.463 100.476 162.734 114.709C166.006 128.942 155.383 129.502 155.383 129.502C152.051 121.708 149.824 113.484 148.766 105.071Z" fill="white"/>
<path d="M92.2761 126.936C92.335 127.135 87.1962 129.038 80.7929 131.198C74.3896 133.359 69.1405 134.937 69.0744 134.746C69.0082 134.554 74.1543 132.636 80.5576 130.483C86.9609 128.33 92.21 126.737 92.2761 126.936Z" fill="#263238"/>
<path d="M93.5999 131.125C93.6587 131.324 88.5199 133.234 82.1166 135.387C75.7133 137.54 70.4643 139.133 70.3981 138.934C70.3319 138.735 75.4781 136.832 81.8814 134.679C88.2847 132.526 93.5411 130.933 93.5999 131.125Z" fill="#263238"/>
<path d="M94.9226 135.321C94.9814 135.52 89.8426 137.422 83.4394 139.583C77.0361 141.744 71.787 143.322 71.7208 143.13C71.6547 142.939 76.8008 141.021 83.2041 138.868C89.6074 136.715 94.8565 135.122 94.9226 135.321Z" fill="#263238"/>
<path d="M96.2464 139.517C96.3052 139.709 91.1664 141.619 84.7631 143.772C78.3598 145.925 73.1107 147.518 73.0446 147.319C72.9784 147.12 78.1246 145.217 84.5278 143.064C90.9311 140.911 96.1802 139.318 96.2464 139.517Z" fill="#263238"/>
<path d="M186.737 123.271C186.692 123.404 192.868 125.69 200.536 128.374C208.203 131.058 214.452 133.145 214.504 133.012C214.555 132.88 208.365 130.601 200.697 127.909C193.03 125.218 186.781 123.145 186.737 123.271Z" fill="#263238"/>
<path d="M184.245 108.699C184.245 108.832 194.126 107.453 206.263 105.616C218.401 103.78 228.237 102.18 228.223 102.047C228.208 101.914 218.342 103.293 206.168 105.13C193.993 106.966 184.223 108.588 184.245 108.699Z" fill="#263238"/>
<path d="M182.047 93.795C182.142 93.8982 185.597 90.8009 189.766 86.8851C193.934 82.9692 197.242 79.7171 197.154 79.6138C197.066 79.5106 193.603 82.6079 189.435 86.5237C185.267 90.4396 181.958 93.6991 182.047 93.795Z" fill="#263238"/>
<path d="M147.56 80.2259C147.486 80.4647 147.449 80.7133 147.45 80.9633C147.406 81.5386 147.354 82.2317 147.295 83.0798C147.237 83.9279 147.207 85.1004 147.207 86.4352C147.207 87.77 147.141 89.2301 147.207 90.8599C147.302 94.7197 147.596 98.5719 148.089 102.401C148.723 107.09 149.626 111.739 150.795 116.324C152.004 120.892 153.477 125.386 155.206 129.782C156.634 133.359 158.252 136.857 160.05 140.262C160.786 141.737 161.565 143.005 162.204 144.133C162.844 145.262 163.447 146.22 163.954 146.987L165.116 148.75C165.237 148.964 165.388 149.161 165.564 149.332C165.489 149.096 165.383 148.87 165.248 148.661C164.961 148.167 164.623 147.562 164.204 146.832C163.785 146.102 163.182 145.07 162.579 143.883C161.977 142.695 161.234 141.449 160.536 139.974C159.065 137.024 157.455 133.499 155.86 129.48C154.18 125.096 152.732 120.626 151.523 116.088C150.365 111.534 149.449 106.92 148.78 102.268C148.207 97.9763 147.861 94.0826 147.736 90.8009C147.626 89.1638 147.641 87.6815 147.611 86.3762C147.582 85.0709 147.611 83.95 147.611 83.0282C147.611 82.1064 147.611 81.4869 147.611 80.9117C147.618 80.6819 147.601 80.452 147.56 80.2259Z" fill="#263238"/>
<path d="M162.087 247C155.193 247 148.581 244.253 143.706 239.363C138.831 234.472 136.092 227.84 136.092 220.924C136.092 214.007 138.83 207.374 143.705 202.483C148.58 197.591 155.192 194.842 162.087 194.84C168.984 194.84 175.597 197.588 180.474 202.48C185.35 207.372 188.09 214.006 188.09 220.924C188.09 224.349 187.417 227.74 186.11 230.905C184.804 234.069 182.888 236.944 180.473 239.365C178.059 241.787 175.192 243.707 172.037 245.017C168.883 246.327 165.502 247.001 162.087 247Z" fill="url(#paint21_linear_27_805)"/>
<path d="M150.317 230.046C152.526 231.468 155.096 232.223 157.72 232.222C166.689 232.222 171.755 224.626 171.453 217.812C172.399 217.123 173.215 216.272 173.865 215.297C172.981 215.682 172.044 215.931 171.086 216.035C172.097 215.43 172.852 214.475 173.21 213.35C172.263 213.917 171.226 214.316 170.145 214.53C169.416 213.753 168.452 213.239 167.402 213.067C166.353 212.895 165.276 213.075 164.338 213.579C163.401 214.083 162.655 214.882 162.216 215.854C161.778 216.826 161.67 217.916 161.911 218.955C159.991 218.859 158.112 218.359 156.398 217.487C154.683 216.616 153.17 215.392 151.957 213.896C151.338 214.96 151.145 216.22 151.418 217.421C151.691 218.622 152.409 219.674 153.427 220.363C152.654 220.344 151.897 220.136 151.222 219.759C151.208 220.887 151.588 221.985 152.295 222.863C153.002 223.741 153.993 224.344 155.096 224.567C154.377 224.764 153.622 224.792 152.89 224.648C153.198 225.612 153.799 226.455 154.609 227.059C155.418 227.663 156.396 227.999 157.404 228.018C155.398 229.6 152.853 230.328 150.317 230.046Z" fill="white"/>
<path d="M153.089 175.742L152.384 175.951L159.248 199.316L159.953 199.108L153.089 175.742Z" fill="url(#paint22_linear_27_805)"/>
<path d="M155.14 175.349C155.14 175.828 154.999 176.296 154.734 176.693C154.469 177.091 154.092 177.401 153.651 177.584C153.211 177.767 152.726 177.815 152.258 177.722C151.791 177.628 151.361 177.398 151.024 177.06C150.686 176.722 150.457 176.291 150.364 175.821C150.271 175.352 150.318 174.866 150.501 174.424C150.683 173.982 150.993 173.604 151.389 173.338C151.786 173.072 152.252 172.931 152.729 172.931C153.368 172.931 153.982 173.185 154.434 173.639C154.886 174.093 155.14 174.708 155.14 175.349Z" fill="url(#paint23_linear_27_805)"/>
<path d="M246.726 174.524C243.311 174.524 239.929 173.85 236.774 172.54C233.619 171.229 230.752 169.308 228.337 166.886C225.922 164.464 224.007 161.588 222.701 158.423C221.394 155.258 220.722 151.866 220.723 148.44C220.723 141.524 223.462 134.891 228.337 130.001C233.212 125.111 239.824 122.364 246.719 122.364C250.133 122.363 253.514 123.037 256.669 124.347C259.824 125.657 262.69 127.577 265.105 129.999C267.52 132.42 269.435 135.295 270.742 138.459C272.049 141.623 272.721 145.015 272.721 148.44C272.722 151.865 272.051 155.257 270.745 158.421C269.439 161.586 267.524 164.461 265.11 166.883C262.696 169.306 259.83 171.227 256.676 172.538C253.521 173.849 250.14 174.524 246.726 174.524Z" fill="url(#paint24_linear_27_805)"/>
<path d="M259.055 143.071C259.033 142.038 258.839 141.016 258.482 140.048C258.158 139.212 257.656 138.457 257.011 137.835C256.39 137.2 255.637 136.709 254.806 136.397C253.844 136.035 252.827 135.84 251.799 135.822C250.476 135.763 250.049 135.748 246.653 135.748C243.256 135.748 242.867 135.748 241.507 135.822C240.479 135.84 239.462 136.034 238.5 136.397C237.677 136.719 236.929 137.208 236.304 137.833C235.679 138.459 235.19 139.208 234.868 140.033C234.51 141.002 234.317 142.024 234.295 143.057C234.236 144.384 234.221 144.804 234.221 148.182C234.221 151.559 234.221 151.987 234.295 153.344C234.317 154.374 234.51 155.394 234.868 156.36C235.187 157.187 235.675 157.937 236.3 158.564C236.926 159.19 237.675 159.678 238.5 159.996C239.461 160.362 240.478 160.559 241.507 160.578C242.83 160.637 243.249 160.652 246.653 160.652C250.057 160.652 250.446 160.652 251.799 160.578C252.827 160.558 253.844 160.361 254.806 159.996C255.637 159.687 256.389 159.198 257.011 158.565C257.655 157.943 258.157 157.188 258.482 156.353C258.839 155.387 259.033 154.367 259.055 153.337C259.114 152.009 259.129 151.581 259.129 148.174C259.129 144.767 259.114 144.399 259.055 143.071ZM256.85 153.226C256.842 154.014 256.698 154.795 256.423 155.534C256.218 156.071 255.902 156.558 255.497 156.965C255.092 157.372 254.606 157.688 254.071 157.894C253.334 158.169 252.555 158.314 251.77 158.322C250.461 158.381 250.071 158.395 246.756 158.395C243.44 158.395 243.08 158.395 241.749 158.322C240.963 158.315 240.184 158.17 239.448 157.894C238.908 157.697 238.421 157.379 238.022 156.965C237.609 156.563 237.29 156.075 237.088 155.534C236.818 154.794 236.673 154.014 236.662 153.226C236.603 151.913 236.596 151.522 236.596 148.197C236.596 144.871 236.596 144.509 236.662 143.175C236.674 142.384 236.818 141.601 237.088 140.859C237.3 140.325 237.618 139.839 238.024 139.434C238.43 139.028 238.915 138.71 239.448 138.499C240.185 138.227 240.964 138.082 241.749 138.071C243.058 138.012 243.447 137.998 246.756 137.998L251.77 138.071C252.555 138.083 253.333 138.227 254.071 138.499C254.609 138.701 255.096 139.021 255.497 139.436C255.908 139.834 256.225 140.321 256.423 140.859C256.697 141.6 256.842 142.384 256.85 143.175C256.908 144.487 256.923 144.878 256.923 148.197C256.923 151.515 256.879 151.913 256.82 153.226H256.85Z" fill="white"/>
<path d="M246.727 141.81C245.468 141.81 244.237 142.185 243.19 142.887C242.143 143.588 241.327 144.586 240.845 145.753C240.363 146.92 240.237 148.204 240.483 149.442C240.728 150.681 241.335 151.819 242.225 152.712C243.115 153.606 244.25 154.214 245.485 154.46C246.72 154.707 248 154.58 249.163 154.097C250.327 153.613 251.321 152.795 252.02 151.745C252.72 150.694 253.093 149.46 253.093 148.197C253.093 146.503 252.423 144.878 251.229 143.681C250.035 142.483 248.415 141.81 246.727 141.81ZM246.727 152.348C245.908 152.348 245.108 152.105 244.427 151.649C243.747 151.193 243.216 150.544 242.903 149.785C242.59 149.027 242.508 148.192 242.667 147.387C242.827 146.581 243.221 145.841 243.8 145.261C244.379 144.68 245.117 144.285 245.919 144.125C246.722 143.964 247.555 144.047 248.311 144.361C249.067 144.675 249.713 145.207 250.168 145.89C250.623 146.573 250.866 147.375 250.866 148.197C250.866 149.298 250.43 150.354 249.654 151.132C248.877 151.911 247.825 152.348 246.727 152.348Z" fill="white"/>
<path d="M253.35 140.062C253.059 140.062 252.775 140.149 252.533 140.311C252.292 140.473 252.103 140.703 251.992 140.973C251.88 141.242 251.851 141.539 251.908 141.825C251.965 142.111 252.105 142.374 252.311 142.58C252.516 142.787 252.778 142.927 253.063 142.984C253.349 143.041 253.644 143.012 253.913 142.9C254.182 142.788 254.411 142.599 254.573 142.357C254.734 142.114 254.821 141.829 254.821 141.537C254.821 141.146 254.666 140.771 254.39 140.494C254.114 140.218 253.74 140.062 253.35 140.062Z" fill="white"/>
<path d="M189.35 148.571L189.34 149.308L223.838 149.798L223.848 149.06L189.35 148.571Z" fill="url(#paint25_linear_27_805)"/>
<path d="M190.78 147.002C191.163 147.29 191.452 147.686 191.61 148.139C191.769 148.592 191.79 149.082 191.671 149.547C191.552 150.012 191.298 150.431 190.941 150.751C190.584 151.071 190.141 151.278 189.667 151.345C189.193 151.412 188.71 151.337 188.278 151.128C187.847 150.92 187.487 150.588 187.244 150.174C187.001 149.76 186.886 149.284 186.914 148.804C186.941 148.325 187.109 147.864 187.398 147.481C187.785 146.97 188.357 146.633 188.99 146.543C189.624 146.454 190.267 146.618 190.78 147.002Z" fill="url(#paint26_linear_27_805)"/>
<path d="M97.9875 60.9637C94.4873 60.9637 91.0214 60.2716 87.788 58.9271C84.5546 57.5826 81.617 55.6119 79.1433 53.1278C76.6697 50.6437 74.7084 47.6949 73.3716 44.4499C72.0348 41.205 71.3487 37.7275 71.3526 34.2164C71.3526 27.1304 74.1587 20.3346 79.1538 15.3241C84.1488 10.3135 90.9235 7.49863 97.9875 7.49863C105.052 7.49863 111.826 10.3135 116.821 15.3241C121.816 20.3346 124.623 27.1304 124.623 34.2164C124.626 37.7275 123.94 41.205 122.604 44.4499C121.267 47.6949 119.305 50.6437 116.832 53.1278C114.358 55.6119 111.421 57.5826 108.187 58.9271C104.954 60.2716 101.488 60.9637 97.9875 60.9637Z" fill="url(#paint27_linear_27_805)"/>
<path d="M94.5843 46.1852H100.024V32.5129H103.833L104.237 27.9407H100.039V25.367C100.039 24.2903 100.252 23.8921 101.296 23.8921H104.237V19.0766H100.473C96.4222 19.0766 94.5916 20.8686 94.5916 24.2903V27.9776H91.7612V32.6088H94.5916L94.5843 46.1852Z" fill="white"/>
<path d="M98.9517 56.1408H98.2163V87.4382H98.9517V56.1408Z" fill="#FF725E"/>
<path d="M96.121 88.0502C96.2402 87.5875 96.4933 87.1705 96.8485 86.852C97.2037 86.5335 97.645 86.3276 98.1167 86.2605C98.5884 86.1933 99.0694 86.2678 99.4989 86.4746C99.9285 86.6813 100.287 87.0111 100.53 87.4223C100.773 87.8335 100.889 88.3076 100.864 88.7848C100.838 89.2621 100.672 89.721 100.387 90.1038C100.101 90.4865 99.7095 90.7759 99.2604 90.9354C98.8113 91.0949 98.3251 91.1174 97.8633 91C97.2426 90.8402 96.7104 90.4398 96.3837 89.8867C96.0571 89.3336 95.9625 88.6731 96.121 88.0502Z" fill="#FF725E"/>
<path d="M35.66 103.869C28.7655 103.869 22.1535 101.121 17.2784 96.231C12.4033 91.3407 9.66455 84.7082 9.66455 77.7923C9.66455 70.8765 12.4033 64.2439 17.2784 59.3537C22.1535 54.4634 28.7655 51.7161 35.66 51.7161C42.555 51.7161 49.1678 54.4632 54.0441 59.3532C58.9203 64.2432 61.6608 70.8758 61.6627 77.7923C61.6608 84.7088 58.9203 91.3414 54.0441 96.2314C49.1678 101.121 42.555 103.869 35.66 103.869Z" fill="url(#paint28_linear_27_805)"/>
<path fill-rule="evenodd" clip-rule="evenodd" d="M49.8051 76.723C49.6974 73.0928 48.1924 69.6454 45.6058 67.1042C43.0192 64.563 39.5519 63.1253 35.9315 63.0929C32.311 63.0604 28.8188 64.4357 26.1873 66.9302C23.5558 69.4247 21.9897 72.8446 21.8174 76.4723C21.8174 76.6714 21.8174 76.8779 21.8174 77.077C21.8152 79.6178 22.5095 82.1102 23.8244 84.2819L22.2585 88.9278C22.1537 89.1931 22.1279 89.4833 22.1842 89.763C22.2405 90.0428 22.3765 90.3001 22.5757 90.5039C22.775 90.7076 23.0288 90.849 23.3066 90.9109C23.5843 90.9728 23.874 90.9525 24.1405 90.8525L29.0587 89.2818C31.184 90.4535 33.5761 91.0519 36.001 91.0184C38.4258 90.9849 40.8006 90.3207 42.8929 89.0907C44.9851 87.8607 46.7234 86.107 47.9375 84.0012C49.1517 81.8954 49.8003 79.5096 49.8198 77.077L49.8051 76.723ZM35.837 88.7951C33.5349 88.8012 31.2821 88.1266 29.3602 86.8556L24.8389 88.3305L26.3092 83.9795C24.863 81.9827 24.0903 79.5747 24.1037 77.1065C24.1013 76.7271 24.121 76.3479 24.1626 75.9708C24.4332 73.0221 25.7993 70.2832 27.9896 68.2979C30.18 66.3126 33.0344 65.2261 35.9863 65.2539C38.9382 65.2818 41.7717 66.422 43.9245 68.4483C46.0772 70.4746 47.3916 73.2387 47.6069 76.192C47.6069 76.5018 47.6437 76.8041 47.6437 77.1065C47.6127 80.2281 46.3496 83.2102 44.1311 85.3997C41.9127 87.5891 38.9196 88.8073 35.8076 88.7877L35.837 88.7951Z" fill="white"/>
<path fill-rule="evenodd" clip-rule="evenodd" d="M42.2247 79.894C41.8791 79.7244 40.1883 78.8985 39.8795 78.7805C39.5707 78.6625 39.3355 78.6109 39.1002 78.9575C38.865 79.3041 38.2107 80.0637 38.0122 80.2923C37.8137 80.5209 37.6152 80.543 37.277 80.3734C36.2628 79.9766 35.3269 79.4023 34.5128 78.6773C33.7656 77.9891 33.124 77.1938 32.6087 76.3174C32.4102 75.9782 32.6087 75.7938 32.7558 75.6242C32.9028 75.4546 33.1013 75.2186 33.2777 75.0195L33.4027 74.8573C33.4841 74.7278 33.5554 74.5922 33.6159 74.4517C33.6654 74.36 33.6914 74.2573 33.6914 74.153C33.6914 74.0487 33.6654 73.946 33.6159 73.8543C33.5277 73.6773 32.8366 71.996 32.5499 71.3101C32.2632 70.6243 31.9838 70.7497 31.778 70.7497C31.5721 70.7497 31.3516 70.7128 31.1237 70.7128C30.9496 70.718 30.7784 70.7586 30.6205 70.8321C30.4625 70.9056 30.3211 71.0106 30.2047 71.1405C29.8182 71.5065 29.5119 71.9493 29.3056 72.4408C29.0993 72.9322 28.9974 73.4613 29.0064 73.9945C29.0132 74.389 29.0725 74.7809 29.1829 75.1596C29.4511 76.0146 29.8666 76.8158 30.4106 77.5268C30.5797 77.7481 32.7778 81.3173 36.2919 82.689C39.806 84.0606 39.7839 83.596 40.4162 83.537C40.894 83.4472 41.3471 83.256 41.7452 82.9762C42.1434 82.6964 42.4773 82.3345 42.7246 81.9146C42.9551 81.4072 43.0269 80.8415 42.9304 80.2923C42.8128 80.1521 42.5628 80.0637 42.2247 79.894Z" fill="white"/>
<path d="M47.0753 91.2511L46.5195 91.7338L62.4199 110.153L62.9756 109.67L47.0753 91.2511Z" fill="url(#paint29_linear_27_805)"/>
<path d="M60.707 111.368C60.509 110.933 60.444 110.449 60.5203 109.977C60.5966 109.505 60.8107 109.066 61.1355 108.716C61.4603 108.366 61.8813 108.12 62.3453 108.01C62.8092 107.9 63.2953 107.93 63.7421 108.097C64.1889 108.264 64.5764 108.56 64.8555 108.948C65.1346 109.336 65.2929 109.798 65.3103 110.276C65.3278 110.754 65.2035 111.226 64.9534 111.633C64.7032 112.04 64.3384 112.364 63.9049 112.563C63.3227 112.828 62.6594 112.852 62.0601 112.628C61.4608 112.404 60.9743 111.951 60.707 111.368Z" fill="url(#paint30_linear_27_805)"/>
<defs>
<linearGradient id="paint0_linear_27_805" x1="37.4912" y1="196.002" x2="42.3874" y2="196.002" gradientUnits="userSpaceOnUse">
<stop stop-color="#FFA122"/>
<stop offset="1" stop-color="#FF7205"/>
</linearGradient>
<linearGradient id="paint1_linear_27_805" x1="28.2134" y1="208.76" x2="33.1096" y2="208.76" gradientUnits="userSpaceOnUse">
<stop stop-color="#FFA122"/>
<stop offset="1" stop-color="#FF7205"/>
</linearGradient>
<linearGradient id="paint2_linear_27_805" x1="45.9604" y1="204.512" x2="50.8566" y2="204.512" gradientUnits="userSpaceOnUse">
<stop stop-color="#FFA122"/>
<stop offset="1" stop-color="#FF7205"/>
</linearGradient>
<linearGradient id="paint3_linear_27_805" x1="54.2891" y1="199.56" x2="59.1853" y2="199.56" gradientUnits="userSpaceOnUse">
<stop stop-color="#FFA122"/>
<stop offset="1" stop-color="#FF7205"/>
</linearGradient>
<linearGradient id="paint4_linear_27_805" x1="63.8906" y1="209.42" x2="68.7868" y2="209.42" gradientUnits="userSpaceOnUse">
<stop stop-color="#FFA122"/>
<stop offset="1" stop-color="#FF7205"/>
</linearGradient>
<linearGradient id="paint5_linear_27_805" x1="219.522" y1="203.135" x2="219.522" y2="207.37" gradientUnits="userSpaceOnUse">
<stop stop-color="#FFA122"/>
<stop offset="1" stop-color="#FF7205"/>
</linearGradient>
<linearGradient id="paint6_linear_27_805" x1="197.831" y1="203.266" x2="197.831" y2="216.411" gradientUnits="userSpaceOnUse">
<stop stop-color="#FFA122"/>
<stop offset="1" stop-color="#FF7205"/>
</linearGradient>
<linearGradient id="paint7_linear_27_805" x1="210.038" y1="203.262" x2="210.038" y2="216.705" gradientUnits="userSpaceOnUse">
<stop stop-color="#FFA122"/>
<stop offset="1" stop-color="#FF7205"/>
</linearGradient>
<linearGradient id="paint8_linear_27_805" x1="50.5778" y1="110.352" x2="50.5778" y2="114.608" gradientUnits="userSpaceOnUse">
<stop stop-color="#FFA122"/>
<stop offset="1" stop-color="#FF7205"/>
</linearGradient>
<linearGradient id="paint9_linear_27_805" x1="30.6506" y1="110.955" x2="30.6506" y2="123.809" gradientUnits="userSpaceOnUse">
<stop stop-color="#FFA122"/>
<stop offset="1" stop-color="#FF7205"/>
</linearGradient>
<linearGradient id="paint10_linear_27_805" x1="41.3034" y1="110.66" x2="41.3034" y2="124.104" gradientUnits="userSpaceOnUse">
<stop stop-color="#FFA122"/>
<stop offset="1" stop-color="#FF7205"/>
</linearGradient>
<linearGradient id="paint11_linear_27_805" x1="163.858" y1="41.1337" x2="163.858" y2="52.6895" gradientUnits="userSpaceOnUse">
<stop stop-color="#FFA122"/>
<stop offset="1" stop-color="#FF7205"/>
</linearGradient>
<linearGradient id="paint12_linear_27_805" x1="175.166" y1="31.7902" x2="175.166" y2="52.6968" gradientUnits="userSpaceOnUse">
<stop stop-color="#FFA122"/>
<stop offset="1" stop-color="#FF7205"/>
</linearGradient>
<linearGradient id="paint13_linear_27_805" x1="186.473" y1="44.7841" x2="186.473" y2="52.6895" gradientUnits="userSpaceOnUse">
<stop stop-color="#FFA122"/>
<stop offset="1" stop-color="#FF7205"/>
</linearGradient>
<linearGradient id="paint14_linear_27_805" x1="197.772" y1="39.7399" x2="197.772" y2="52.6895" gradientUnits="userSpaceOnUse">
<stop stop-color="#FFA122"/>
<stop offset="1" stop-color="#FF7205"/>
</linearGradient>
<linearGradient id="paint15_linear_27_805" x1="209.078" y1="43.6631" x2="209.078" y2="52.6895" gradientUnits="userSpaceOnUse">
<stop stop-color="#FFA122"/>
<stop offset="1" stop-color="#FF7205"/>
</linearGradient>
<linearGradient id="paint16_linear_27_805" x1="231.681" y1="24.2535" x2="231.681" y2="52.6969" gradientUnits="userSpaceOnUse">
<stop stop-color="#FFA122"/>
<stop offset="1" stop-color="#FF7205"/>
</linearGradient>
<linearGradient id="paint17_linear_27_805" x1="220.374" y1="23.2211" x2="220.374" y2="52.6969" gradientUnits="userSpaceOnUse">
<stop stop-color="#FFA122"/>
<stop offset="1" stop-color="#FF7205"/>
</linearGradient>
<linearGradient id="paint18_linear_27_805" x1="242.991" y1="28.4938" x2="242.991" y2="52.6895" gradientUnits="userSpaceOnUse">
<stop stop-color="#FFA122"/>
<stop offset="1" stop-color="#FF7205"/>
</linearGradient>
<linearGradient id="paint19_linear_27_805" x1="60.697" y1="141.316" x2="60.697" y2="152.267" gradientUnits="userSpaceOnUse">
<stop stop-color="#FFA122"/>
<stop offset="1" stop-color="#FF7205"/>
</linearGradient>
<linearGradient id="paint20_linear_27_805" x1="85.189" y1="112.121" x2="85.189" y2="159.181" gradientUnits="userSpaceOnUse">
<stop stop-color="#FFA122"/>
<stop offset="1" stop-color="#FF7205"/>
</linearGradient>
<linearGradient id="paint21_linear_27_805" x1="162.091" y1="194.84" x2="162.091" y2="247" gradientUnits="userSpaceOnUse">
<stop stop-color="#FFA122"/>
<stop offset="1" stop-color="#FF7205"/>
</linearGradient>
<linearGradient id="paint22_linear_27_805" x1="152.736" y1="175.847" x2="159.64" y2="199.2" gradientUnits="userSpaceOnUse">
<stop stop-color="#FFA122"/>
<stop offset="1" stop-color="#FF7205"/>
</linearGradient>
<linearGradient id="paint23_linear_27_805" x1="152.729" y1="172.931" x2="152.729" y2="177.768" gradientUnits="userSpaceOnUse">
<stop stop-color="#FFA122"/>
<stop offset="1" stop-color="#FF7205"/>
</linearGradient>
<linearGradient id="paint24_linear_27_805" x1="246.722" y1="122.364" x2="246.722" y2="174.524" gradientUnits="userSpaceOnUse">
<stop stop-color="#FFA122"/>
<stop offset="1" stop-color="#FF7205"/>
</linearGradient>
<linearGradient id="paint25_linear_27_805" x1="189.345" y1="148.94" x2="223.843" y2="149.426" gradientUnits="userSpaceOnUse">
<stop stop-color="#FFA122"/>
<stop offset="1" stop-color="#FF7205"/>
</linearGradient>
<linearGradient id="paint26_linear_27_805" x1="189.328" y1="146.52" x2="189.328" y2="151.369" gradientUnits="userSpaceOnUse">
<stop stop-color="#FFA122"/>
<stop offset="1" stop-color="#FF7205"/>
</linearGradient>
<linearGradient id="paint27_linear_27_805" x1="97.9876" y1="7.49863" x2="97.9876" y2="60.9637" gradientUnits="userSpaceOnUse">
<stop stop-color="#FFA122"/>
<stop offset="1" stop-color="#FF7205"/>
</linearGradient>
<linearGradient id="paint28_linear_27_805" x1="35.6636" y1="51.7161" x2="35.6636" y2="103.869" gradientUnits="userSpaceOnUse">
<stop stop-color="#FFA122"/>
<stop offset="1" stop-color="#FF7205"/>
</linearGradient>
<linearGradient id="paint29_linear_27_805" x1="46.7974" y1="91.4925" x2="62.7542" y2="109.863" gradientUnits="userSpaceOnUse">
<stop stop-color="#FFA122"/>
<stop offset="1" stop-color="#FF7205"/>
</linearGradient>
<linearGradient id="paint30_linear_27_805" x1="62.9006" y1="107.945" x2="62.9006" y2="112.78" gradientUnits="userSpaceOnUse">
<stop stop-color="#FFA122"/>
<stop offset="1" stop-color="#FF7205"/>
</linearGradient>
</defs>
</svg>
