<svg width="103" height="19" viewBox="0 0 103 19" fill="none" xmlns="http://www.w3.org/2000/svg">
<path d="M9.46963 0L12.3971 5.947L18.9437 6.9065L14.2066 11.533L15.3246 18.069L9.46963 14.9815L3.61468 18.069L4.73262 11.533L-0.00439453 6.9065L6.54216 5.947L9.46963 0Z" fill="#F7B704"/>
<path d="M30.412 0L33.3395 5.947L39.886 6.9065L35.149 11.533L36.267 18.069L30.412 14.9815L24.5571 18.069L25.675 11.533L20.938 6.9065L27.4845 5.947L30.412 0Z" fill="#F7B704"/>
<path d="M51.3549 0L54.2824 5.947L60.8289 6.9065L56.0919 11.533L57.2098 18.069L51.3549 14.9815L45.4999 18.069L46.6179 11.533L41.8809 6.9065L48.4274 5.947L51.3549 0Z" fill="#F7B704"/>
<path d="M72.2973 0L75.2247 5.947L81.7713 6.9065L77.0343 11.533L78.1522 18.069L72.2973 14.9815L66.4423 18.069L67.5603 11.533L62.8232 6.9065L69.3698 5.947L72.2973 0Z" fill="#F7B704"/>
<path d="M93.2401 0L96.1676 5.947L102.714 6.9065L97.9771 11.533L99.0951 18.069L93.2401 14.9815L87.3852 18.069L88.5031 11.533L83.7661 6.9065L90.3127 5.947L93.2401 0Z" fill="#F7B704"/>
</svg>
